<mxfile host="app.diagrams.net" modified="2022-04-27T01:17:49.328Z" agent="5.0 (Windows NT 10.0; Win64; x64) AppleWebKit/537.36 (KHTML, like Gecko) Chrome/99.0.4844.51 Safari/537.36 Edg/99.0.1150.39" etag="WxZbcKqstMyJ9uoV-mYC" version="17.4.6" type="github">
  <diagram id="hmIAbFtHb3Cqtu4mIytf" name="第 1 页">
    <mxGraphModel dx="2249" dy="762" grid="1" gridSize="10" guides="1" tooltips="1" connect="1" arrows="1" fold="1" page="1" pageScale="1" pageWidth="827" pageHeight="1169" math="0" shadow="0">
      <root>
        <mxCell id="0" />
        <mxCell id="1" parent="0" />
        <mxCell id="g5KGWx0Slo7Nv19RKyK4-1" value="" style="shape=image;verticalLabelPosition=bottom;labelBackgroundColor=default;verticalAlign=top;aspect=fixed;imageAspect=0;image=data:image/png,iVBORw0KGgoAAAANSUhEUgAABD8AAATJCAYAAADQAr1KAAAAAXNSR0IArs4c6QAAIABJREFUeF7svQ2UVcWV973P7QY7GIZPJWACj5EslK/m1m2BMAQxgZE4L6BIDG9MjPFVE3CkIRkEMi+C+oyArAQaR0jQ8QPHZwhBFHjH4IAJGIM09q3bjYCyoiGggWAAYQik+ehb76oTDjl9uN/n49ap879r9UK76+za+7f3rXPrf6vqGIQXCIAACIAACIAACIAACIAACIAACIAACGhMwNA4NoQGAiAAAiAAAiAAAiAAAiAAAiAAAiAAAgTxA0UAAiAAAiAAAiAAAiAAAiAAAiAAAiCgNQGIH1qnF8GBAAiAAAiAAAiAAAiAAAiAAAiAAAhA/EANgAAIgAAIgAAIgAAIgAAIgAAIgAAIaE0A4ofW6UVwIAACIAACIAACIAACIAACIAACIAACED9QAyAAAiAAAiAAAiAAAiAAAiAAAiAAAloTgPihdXoRHAiAAAiAAAiAAAiAAAiAAAiAAAiAAMQP1AAIgAAIgAAIgAAIgAAIgAAIgAAIgIDWBCB+aJ1eBAcCIAACIAACIAACIAACIAACIAACIADxAzUAAiAAAiAAAiAAAiAAAiAAAiAAAiCgNQGIH1qnF8GBAAiAAAiAAAiAAAiAAAiAAAiAAAhA/EANgAAIgAAIgAAIgAAIgAAIgAAIgAAIaE0A4ofW6UVwIAACIAACIAACIAACIAACIAACIAACED9QAyAAAiAAAiAAAiAAAiAAAiAAAiAAAloTgPihdXoRHAiAAAiAAAiAAAiAAAiAAAiAAAiAAMQP1AAIgAAIgAAIgAAIgAAIgAAIgAAIgIDWBCB+aJ1eBAcCIAACIAACIAACIAACIAACIAACIADxAzUAAiAAAiAAAiAAAiAAAiAAAiAAAiCgNQGIH1qnF8GBAAiAAAiAAAiAAAiAAAiAAAiAAAhA/EANgAAIgAAIgAAIgAAIgAAIgAAIgAAIaE0A4ofW6UVwIAACIAACIAACIAACIAACIAACIAACED9QAyAAAiAAAiAAAiAAAiAAAiAAAiAAAloTgPihdXoRHAiAAAiAAAiAAAiAAAiAAAiAAAiAAMQP1AAIgAAIKEaAMXadEGJYLBbrm06nuxiG0YWI5E9XIYT8/85CiGOGYRwloiNEdFQIcTQWix1Np9N7DMPYxjl/V7Gw4A4IgAAIgAAIgAAIgAAIlI0AxI+yoUfHIAACIPBXAoMGDRpWUVExTAoe8scwjG5u2QghDksRRP60tLRsa2xs3ObWJq4HARAAARAAARAAARAAgbASgPgR1szBbxAAgVATiMfjvQzD+A4R3U1En7MH061bNxowYAD179+fOnToQB07dmz1r/zdiRMnzJ/jx4+3+nfXrl30zjvv0OHDh518PiSiZ4QQz6ZSqf2hhgfnQQAEQAAEQAAEQAAEQKBIAhA/igSG5iAAAiDghgBj7KYLgsftlp3evXtTdXW1KXjIf3v27OmmC/PaAwcO0M6dO82fpqYmev/99+02V0shhHP+muuOYAAEQAAEQAAEQAAEQAAEQkAA4kcIkgQXQQAEwk8gHo9PNAxjDhENtKIZM2YMjRs3joYMGeJ7gPX19bR+/XrauHGjva+dQohHU6nUGt8dQAcgAAIgAAIgAAIgAAIgUEYCvosfjDFRxvjQtUcEOOe+14pHrsIMCChFIB6PX0FEiwzD+LZ0rEePHqbgMX78eLryyisD9/Xjjz+mdevWmULIwYMHzf6FEM8T0YxUKvWnwB1ChyAAAiAAAiAAAiAAAiAQAAHfJ7QQPwLIYgBdQPwIADK60I4AY0ye6fG4fEpLLBajadOm0R133KFMnC+++CItWbKE0um09Ek+NeZBzvmzyjgIR0AABEAABEAABEAABEDAIwKBiR/JZNIjl2EmSAKJRMLsDuJHkNTRV9gJVFdXX1VRUbGUiCbIWEaOHElTp06lXr16KRfa/v37qa6ujrZu3Wr5tralpWVqU1PTH5RzFg6BAAiAAAiAAAiAAAiAQIkEIH6UCC4ql0H8iEqmEadXBBKJRE8hxAZ5tkf79u2ptraWbr31Vq/M+2bn5ZdfNkWQkydPyj52GoYxNplMHvCtQxgGARAAARAAARAAARAAgQAJQPwIEHYYu4L4EcaswedyERg4cODVbdq02SCE6Ddo0CBauHAhde3atVzuFN3vkSNHaObMmdTY2EiGYeyuqKgYu2PHjn1FG8IFIAACIAACIAACIAACIKAYAYgfiiVENXcgfmTPiBCrlT7Md9++z2z5/OdH3KhaTenqD2OsNxHJFR/XyveNPEujXbt2oQv39OnT5tkkF7YqvkdEYznnrZ6TG7qg4DAIgAAIgAAIgAAIgEDkCUD8iHwJ5AYA8SO84gfn11CnTqcggATwHq+pqemTTqel8PGF66+/3hQ+qqqqAujZny6am5tNAeTtt9+WHfw2FouNbWho2OtPb7AKAiAAAiAAAiAAAiAAAv4TgPjhP+NQ9wDxI9zih/QeAoj/b0HGGCei+JAhQ0zho23btv536nMPZ8+epenTp9P27dtlTynOOfO5S5gHARAAARAAARAAARAAAd8IQPzwDa0ehiF+hF/8gADi73uRMTaPiOb26dOHVq5cSZWVlf52GKD18+fP05133kl795qLPh7mnMtY8QIBEAABEAABEAABEACB0BGA+BG6lAXrMMQPPcQPCCD+vG8YY/JZ0A3S+rJly0iu/NDtVV9fT1OmTLHCquGc47nluiUZ8YAACIAACIAACIBABAhA/IhAkt2ECPFDH/EDAoibd0LmaxljrxPRlydNmkQzZszwvgNFLD7++OP0s5/9THrzS875VxRxC26AAAiAAAiAAAiAAAiAQMEEIH4UjCqaDSF+6CV+QADx7n3MGJtGRIt79OhBa9asocsuu8w744pZOnPmDN1222106NAh6dl0zvkSxVyEOyAAAiAAAiAAAiAAAiCQkwDEDxRITgIQP/QTPyCAuH/TDx48uMv58+elEtBmwYIFNHr0aPdGFbewadMmmjVrlvTyXGVlZfcdO3YcVdxluAcCIAACIAACIAACIAACFwlA/EAxQPwosQaEWC1KvDSQy+SjbnO98BSY0tPAGPsuEf1k+PDhVFdXV7qhkF1ZW1tLb775pvT6e5zzn4bMfbgLAiAAAiAAAiAAAiAQYQIQPyKc/EJCx8qP7JTCLn7IyCCAFPIuuLQNY2wTEY2aN28ejR07tjQjIbxq/fr19PDDD0vPN3PO9V/uEsIcwWUQAAEQAAEQAAEQAIHMBCB+oDJyEoD4obf4AQGk+AEgkUj0FELsj8VitGXLFrr88suLNxLSK06dOkUjR46kdDpNhmH0SiaTB0IaCtwGARAAARAAARAAARCIGAGIHxFLeLHhQvzQX/yAAFLcuyIej3/fMIwfyXM+5HkfUXvJcz/k+R9CiB+kUqkfRy1+xAsCIAACIAACIAACIBBOAhA/wpm3wLyG+BEN8QMCSOFvKcbYNiL64sKFC2nUqFGFX6hJy82bN9PMmTNlNG9xzodpEhbCAAEQAAEQAAEQAAEQ0JwAxA/NE+w2PIgf0RE/IIDkf7cwxq4joj1yq8vWrVvl1o/8F2nWQghBI0aMoNOnT8vI+nLO39UsRIQDAiAAAiAAAiAAAiCgIQHfP7kzxswnYiSTSQ3x6R8SxI9oiR8QQHK/p2tqasan0+lX5OR/8eLF+g8AWSKcPn06vfHGGxSLxW5paGhYF1kQCBwEQAAEQAAEQAAEQCA0BCB+5ElVc3MzPfroo9TU1ERPPPEEXX311eYVUsxZu3YtzZkzh6qqqszf7du3z5wQPfLII9SxY8fQFEEuRyF++Cd+HD/+F6qt/Tnt2nUwaydjxvSlOXO+SlVVbTK2kTYWLdpEM2aMpo4dP9WqTb5H3ebKexSeApNIJNokk8lzxbxRE4nEFCHEkxMnTqTZs2cXc6lWbefPn09r1qyRMf0T5/xJrYJDMCAAAiAAAiAAAiAAAloSiLz4IUWM++67L2tyu3fv3kr0sBpKIWTYsGFkiQP238v/fuCBBzLatMQU+Ue7cKJqdUVB/EgkEn8RQlQS0XrDMJ5JJpP/VUg+3D7qNpdwIfuXf3/hhXq6996/L0n8KCSGXG0M43bfxwe3Prq5njH2eyK6goh+J4RY0bZt29X19fWHc9lkjP0rEf1w8uTJdM899xTUvTXGyLFEnpXx1FNPmY+LlULqunXr6MCBA1nHC6sDa9yYMGHCJWNOQU543Ojpp5+m5cuXy0NP56dSqR96bB7mQAAEQAAEQAAEQAAEQMBzAr5PbsK07eX48eNUW1tLn/3sZ3MKE3KFx6pVq0gu/X7ttdfMlR7ZXv3796e6urqLK0HktT/+8Y/pxIkTFydAnmfVQ4NRED+sGr2A7bj8VwixSgjxQmNjozzcMuMraPHjiSe20HPPbS84u3fdNZQeeGBkwe2dDSMgfjQSUfWFfP/ZMAy5hEvm+6nm5ubVe/bsOetkEo/HnzcM4865c+fSuHHj8rK1xpSpU6eaooV8/8trVRM/pAizY8eOggXZ9evXmzEYhrEymUx+Oy8INAABEAABEAABEAABEACBMhOA+EFE1reqH330USuhQubG+tZ2xYoVF79xtVZ9yL9bW1+kDSmcWJOcbHmVkwz5kt/2yle2FSJlrouL3UdQ/LgYu2EY/0NEJ4joaSHEz50HOwYtfmSqiXyrR9zUUZTEDwcnmfN2RLTBuRKIMbaZiL7y5JNP0tChQ/PidYodzgtUWflRrPixfft2uv/++2U4r3POo/fIm7yZRwMQAAEQAAEQAAEQAAHVCERe/LC+md21a1fG3IwZM+aScz2sVR+vvPIKyb/L8z2kINKzZ08aP348SZuLFi2iGTNmtDr7Q/7+oYceMleMHDt2jJYuXXqJ2KJagURZ/LDl4gwRtTi3R0D8UK1ai/OHMXZx5UeOK62VQP8phPiPWCz270R07erVq+maa67J2aFzS50cK771rW/RY489lnXlh3M8kuOFHFMsgfbmm2+mV199lTZu3Gj2bf3dckSKGNZKtEyrzqTYeujQIbO5JejKseu55567GIvTZqYgP/jgA7r99tvln97jnMsn4OAFAiAAAiAAAiAAAiAAAkoTiLz44cyO80yOTz75hORe/UyTC2vykOnbWznx2bZtW6uVHfZDUqU9eZCqKnv4s1Wp80wTpas5GOf+TERye8T7yeSsa910WcqBp4VufXnooZtp/PiBbtyjRGKBq+t1u1iuBBJCfJqIYlu2bKH27dvnDdG58iPXthdL+JBjgiWiWqvJ+vXrd8nBy9KWFDPk9hP5PpXjkFyJZm2zs6/mkI5KsfaWW24xD2jO1dY6wDlXcCdPnqSRI80tVSeJKD+IvKSUazCPc/6wcl7BIRAAARAAARAAARAAgZIJQPy4gM5+KKH9qS6ZloNLgUT+yBUf1gTE+jbVmQnndhlrdYhsV+xS85Kz7OJCiB+XwPNU/Mj2pBbZayEHnkoxZNiwz1Mi0dNFljNfCvGjNZcL4oec6Bt+iB+ZxgNrRdlNN91kih+DBw82hRHrJf8uX3JFiXPbXa6nTzn/VuxYBPHD87cbDIIACIAACIAACIAACPhMIPLiR75tLxZ/awm5/FZUTkKsZefWtpjdu3ebKz3uvfde83G3kyZNok6dOl3c/iLtyMmJc3tNtqfJ+Jz3gs1j24t5+OkZwzCU2PZiiR3btv3OFD369etOixf/kiZNqqGrr+5Czc3n6NFHf0ETJgxyLYhE+MwP+/uj5G0v0kgxKz/sW1bsDtx1113muJJppZi16swSP7KNL3KcsY9b0r597ClW/NB12wtjbC4RzZM/WPlR8G0CDUEABEAABEAABEAgFAQiL35kypL9aS7WEnBry4qcZPzzP//zxaXm1vXy7/LAVPkNrSV+yEdZWq9sK0gyfZurUuVEWfxQ7cBT++Gm8hG41oqPffuO0qpVDTR9+pfNR+J6dQhqhMUP88BTIcSGWCzW6tHHbg88zbXtJZcAke1Rt9bKkBtuuCHngctO25n8KOZpL7oeeArxQ6W7D3wBARAAARAAARAAAW8JQPy4wNNaPi730Fvix+TJk82VG9nO5bBPKJ566ikaNmwYyb35dvHjmWeeMX//wgsvXLJkXXbt3HvvbXrdW4ug+NHqm36VHnVrFzmeeuo3l2x3sYseH3zwJ5KrQ/Co2+zvAfuBp0KIgh51m0gknhdCFPyo22JWfjjP8JCey/HjxhtvNFdpSKHU/kQqKbjKx+Za2/Tkv3/84x8vHtAs7f3qV7+iu++++5ItdrKtfEy3dW2xKz+sR90KIVamUiltHnUL8cP9PQMWQAAEQAAEQAAEQEBVApEXP6xtLzU1NRcPJ7Wv/JCJc046rOXp1lMR7MKJ/IbWEj/khEX+9/Dhw0mKI/JgQvtqEGk704RHpWKJgviRSCT+IoSoJKL1zkeb5sqFF097qa39Oe3adTBrN2PG9KU5c75qruhYt26n2U4eZJrprA/nChC3dRSBlR+/J6IrnE/xycUtHo8/ZhjGbCmM3nPPPXkRFyN+2McD5xNZrJUfUgiRQqq1vcV+ppC83v7kFvuTqqzrre168klU8qkx1phk3/5XyNNenn76aVq+fLns8jHO+b/kBRGSBhA/QpIouAkCIAACIAACIAACJRCItPiRaem39ZhI5wTA2vYSj8epTZs25qGDlnAh9+PbDyG07913Piq3hByV9ZIoiB+MsW82Nzev3rNnz9liYHshfpR64GkyeYDuu+//XOLuihXfcH3Wh2VUd/GjpqZmtBDiw2Qy+V6heWeM3U9E/zZx4kSaPXt2oZdp127+/Pm0Zs0aMgzj/mQyuUyXACF+6JJJxAECIAACIAACIAAClxKItPiBgshPIAriR34KmVu4FT9K7Teo63QXP0rhWFNTMz6dTr8yYsQIc1VXVF/Tp0+nN954g2Kx2C0NDQ3rdOEA8UOXTCIOEAABEAABEAABEID4gRookgDEj+zAIH4UWUwaNGeMXUdEe9q1a2dO/g3Dd/1YOWpCCJIHrJ46dUr61pdz/q5yTpboEMSPEsHhMhAAARAAARAAARAIAQHfP7kzxoTkILeN4BU+AhA/IH6Er2r99Zgxto2Ivrhw4UIaNWqUv50paH3z5s00c+ZM6dlbnPNhCrpYsksQP0pGhwtBAARAAARAAARAQHkCED+UT1F5HYT4AfGjvBWoXu/xePz7hmH8aPTo0bRgwQL1HPTZo1mzZtGmTZtICPGDVCr1Y5+7C9Q8xI9AcaMzEAABEAABEAABEAiUAMSPQHGHrzOIHxA/wle1/nqcSCR6CiH2x2Ix2rJlC11++eX+dqiQdbnVZeTIkZROp+WWn15JefKuRi+IHxolE6GAAAiAAAiAAAiAgIMAxA+URE4CED8gfuAtcikBxtgmIho1d+5cGjduXGQQbdiwgebNmyfj3cw5H61b4BA/dMso4gEBEAABEAABEACBvxGA+IFqgPhRYg3gwNMSwWlwGWPsu0T0k+HDh1NdXZ0GERUWQm1tLb355puy8fc45z8t7KrwtIL4EZ5cwVMQAAEQAAEQAAEQKJYAxI9iiUWsPVZ+ZE84xI+IvRls4Q4ePLjL+fPnDxFRG3nuhzz/Q/eXPOdDnvdBROcqKyu779ix46huMUP80C2jiAcEQAAEQAAEQAAE/kYA4geqIScBiB8QP/AWyUyAMTaNiBZ3796dXnrpJbrsssu0RXXmzBmaOHEiHTx4UMY4nXO+RMdgIX7omFXEBAIgAAIgAAIgAAJ/JQDxA5UA8aPEGsDKjxLBaXQZY+x1Ivry17/+dXrwwQc1iqx1KIsWLaJVq1bJX/6Sc/4VXQOF+KFrZhEXCIAACIAACIAACED8QA3kIYCVH9kBQfzA24cxliCiBkli2bJlNGTIEO2g1NfX05QpU6y4ajjnSe2CvBAQxA9dM4u4QAAEQAAEQAAEQADiB2oA4kfJNQDxo2R0Wl3IGJOPP5nbp08fWrlyJVVWVmoT3/nz5+nOO++kvXv3ypge5pybj3rR9QXxQ9fMIi4QAAEQAAEQAAEQgPiBGoD4UXINQPwoGZ12FzLGOBHFhw4dSosXL6a2bduGPsazZ8/StGnTSK78IKIU55yFPqg8AUD80D3DiA8EQAAEQAAEQCDKBHDmR5SzX0Ds2PaSHRLEjwIKKCJNampq+qTT6Q1E9IXrr7+elixZQlVVVaGNvrm52RQ+3n77bRnDb2Ox2NiGhgZz+YfOL4gfOmcXsYEACIAACIAACESdAMSPqFdAnvghfkD8wFukMAKMsd5EJAWQa+X7Rgog7dq1K+xihVqdPn3aFD6SSfNoj/eIaCzn/H2FXPTNFYgfvqGFYRAAARAAARAAARAoOwGIH2VPgdoOQPxQOz/wTi0CgwcPvrqlpWWDEKLfoEGDaOHChdS1a1e1nMzhzZEjR2jmzJnU2NhIhmHsPnfu3NidO3fuC00ALh2F+OESIC4HARAAARAAARAAAYUJQPxQODkquAbxQ4UswIcwEUgkEj2FEHIFyMD27dtTbW0t3XrrrcqH8PLLL1NdXR2dPHlS+rrTMIyxyWTygPKOe+ggxA8PYcIUCIAACIAACIAACChGAOKHYglRzR2IH6plBP6EgUB1dfVVFRUVS4logvT3hhtuMEWQXr16Kef+/v37aenSpbRlyxbLt7UtLS1Tm5qa/qCcsz47BPHDZ8AwDwIgAAIgAAIgAAJlJBCY+FHGGNG1BwQ4577XigduwgQIKEWAMfYdInqciLrGYjHzLI077rhDGR9ffPFF82ySdDotfTpCRA9yzp9VxsGAHYH4ETBwdAcCIAACIAACIAACARLwfULLGBMBxoOufCIA8cMnsDCrPYF4PH4FES0yDOPbMtgePXrQuHHjaPz48XTllVcGHv/HH39M69ato/Xr19PBgwfN/oUQzxPRjFQq9afAHVKoQ4gfCiUDroAACIAACIAACICAxwR8Fz889hfmQAAEQCCUBOLx+ETDMObIs0CsAMaMGWMKIUOGDPE9pvr6elPw2Lhxo72vnUKIR1Op1BrfHQhBBxA/QpAkuAgCIAACIAACIAACJRKA+FEiOFwGAiAAAqUQYIzdRER3E9Ht1vW9e/em6upqGjhwoPnTs2fPUky3uubAgQPU1NRE77zzjvnv+++3elrtaiJ6hnP+muuONDIA8UOjZCIUEAABEAABEAABEHAQgPiBkgABEACBMhCIx+O9DMOQZ4JIIeRzdhe6detGAwYMoP79+1OHDh2oY8eOrf6Vvztx4oT5c/z48Vb/7tq1yxQ8Dh8+7IzqQyl4CCGeTaVS+8sQsvJdQvxQPkVwEARAAARAAARAAARKJgDxo2R0uBAEQAAEvCEwaNCgYRUVFcOEEOaPYRjd3FoWQhw2DGOb/GlpadnW2Ni4za1N3a+H+KF7hhEfCIAACIAACIBAlAlA/Ihy9hE7CICAkgQYY9dJESQWi/VNp9NdDMPoQkTyp6sQQv5/ZyHEMcMwjl54SstRIcTRWCx2NJ1O75GCB+f8XSWDU9gpiB8KJweugQAIgAAIgAAIgIBLAhA/XALE5SAAAiAAAnoQgPihRx4RBQiAAAiAAAiAAAhkIgDxA3UBAiAAAiAAAkQE8QNlAAIgAAIgAAIgAAL6EoD4oW9uERkIgAAIgEARBCB+FAELTUEABEAABEAABEAgZAQgfoQsYXAXBEAABEDAHwIQP/zhCqsgAAIgAAIgAAIgoAIBiB8qZAE+gAAIgAAIlJ0AxI+ypwAOgAAIgAAIgAAIgIBvBCB++IYWhkEABEAABMJEAOJHmLIFX0EABEAABEAABECgOAIQP4rjhdYgAAIgAAKaEoD4oWliERYIgAAIgAAIgAAIEBHED5QBCIAACIAACOBpL6gBEAABEAABEAABENCaAMQPrdOL4EAABEAABAolgJUfhZJCOxAAARAAARAAARAIHwGIH+HLGTwGARAAARDwgQDEDx+gwiQIgAAIgAAIgAAIKEIA4ociiYAbIAACIAAC5SUA8aO8/NE7CIAACIAACIAACPhJAOKHn3RhGwRAAARAIDQEIH6EJlVwFARAAARAAARAAASKJgDxo2hkuAAEQAAEQEBHAhA/dMwqYgIBEAABEAABEACBvxKA+IFKAAEQAAEQAAE87QU1AAIgAAIgAAIgAAJaE4D4oXV6ERwIgAAIgEChBLDyo1BSaAcCIAACIAACIAAC4SMA8SN8OYPHIAACIAACPhDQXfxIJBKzhBATiKg3EXXyASFMZifwCRG9bxjG2mQyuSBqoFB7Zc24drWHekI9eUkA9eQlzaJtBT4+QfwoOke4AARAAARAQEcCOosfjLG3iGiojnkLYUzbOedfDKHfJbmM2isJm18Xhb72UE9+lUZJdlFPJWHDRVkIBFJPED9QfyAAAiAAAiCg8ZkfF77Vmt+nTx+aPHky9evXjzp37oycB0jg2LFjtHv3blq+fDnt3buXDMOYHYUVIKi9AIssS1c61R7qCfXkJQHUk5c0S7NVjvEJ4kdpucJVIAACIAACmhHQdeUHY2wHEV2/ZMkS+tKXvqRZ1sIVzq9//WuaNm2adPptzvngcHlfvLeoveKZ+XWFDrWHevKrOoq3i3oqnhmuyE4gyHqC+IFKBAEQAAEQAAGNV34wxo7JMz42bdqEFR9lrnT5Ldfo0aOlF59wzrVffoPaK3PB2brXofZQT6gnLwmgnryk6c5WkOMTxA93ucLVIAACIOA5AcbYdUKIYbFYrG86ne5iGEYXIpI/XYUQ8v87CyGOGYZxlIiOENFRIcTRWCx2NJ1O7zEMYxvn/F3PHdPcoMYrP4RMXTKZ1DyD4QgvkUiYjnLOtf8MxhhD7SlUlmGvPdSTQsVERKgntfIRdm+Cqiftb7xhLwT4DwIgoD+BQYMGDauoqBgmBQ/5YxhGN7dRCyEOSxFE/rS0tGxrbGzc5tam7tdD/NDSozaWAAAgAElEQVQ9w2rEF9QHPBWixWRVhSz8zYew1x7qCfXkJQHUk5c03dsKanyC+OE+V7AAAiAAAkUTiMfjvQzD+A4R3U1En7Mb6NatGw0YMID69+9PHTp0oI4dO7b6V/7uxIkT5s/x48db/btr1y5655136PDhw06fPiSiZ4QQz6ZSqf1FOxyBCyB+RCDJCoQY1Ac8BUIlTC5UyALED7WyoI83YR/LMD6pVYtB1RPED7XyDm9AAAQ0J8AYu+mC4HG7FWrv3r2purraFDzkvz179nRN4cCBA7Rz507zp6mpid5//327zdVSCOGcv+a6I40MQPzQKJkKhxLUBzwVEGByoUIWIH6olQV9vAn7WIbxSa1aDKqeIH6olXd4AwIgoCmBeDw+0TCMOUQ00ApxzJgxNG7cOBoyZIjvUdfX19P69etp48aN9r52CiEeTaVSa3x3IAQdQPwIQZI0cDGoD3gqoMLkQoUsQPxQKwv6eBP2sQzjk1q1GFQ9+S5+WIWlFl54UyyBKBzMViwTtAeBQgjE4/EriGiRYRjflu179OhhCh7jx4+nK6+8shATnrb5+OOPad26daYQcvDgQdO2EOJ5IpqRSqX+5GlnITMG8SNkCQupu0F9wFMBDyYXKmQB4odaWdDHm7CPZRif1KrFoOoJ4odaeVfWG4gfyqYGjilMgDEmz/R4XD6lJRaL0bRp0+iOO+5QxuMXX3yRlixZQul0WvoknxrzIOf8WWUcDNgRiB8BA49od0F9wFMBLyYXKmQB4odaWdDHm7CPZRif1KrFoOopMPEDj9hTq8AK9SaoQizUH7QDgTAQqK6uvqqiomIpEU2Q/o4cOZKmTp1KvXr1Us79/fv3U11dHW3dutXybW1LS8vUpqamPyjnrM8OQfzwGTDMmwSidF/F5EKtog977aGeUE9eEkA9eUnTva2gxieIH+5zpbWFoApRa4gILlIEEolETyHEBnm2R/v27am2tpZuvfVW5Rm8/PLLpghy8uRJ6etOwzDGJpPJA8o77qGDED88hAlTWQlE6b6KyYVab4Sw1x7qCfXkJQHUk5c03dsKanyC+OE+V1pbCKoQtYaI4CJDYODAgVe3adNmgxCi36BBg2jhwoXUtWvX0MR/5MgRmjlzJjU2NpJhGLsrKirG7tixY19oAnDpKMQPlwBxeUEEonRfxeSioJIIrFHYaw/1FFipFNQR6qkgTGhUIIGg6gniR4EJiWqzoAoxjHyFWC1U9nvfvs9s+fznR9yoso86+cYY601EcsXHtfJ9I8/SaNeuXehCPH36tHk2yYWtiu8R0VjOeavn5IYuqAIdhvhRICg0c0UgSvdVTFZdlYrnF4e99lBPnpeEK4OoJ1f4cLGDQFD1BPEDpZeTQFCFGMY0qC5+cH4Ndep0CgJIAMVVU1PTJ51OS+HjC9dff70pfFRVVQXQsz9dNDc3mwLI22+/LTv4bSwWG9vQ0LDXn97UsQrxQ51c6OxJlO6rmKyqVclhrz3UE+rJSwKoJy9purcV1PgE8cN9rrS2EFQhhhFiGMQPyRUCiP/VxRjjRBQfMmSIKXy0bdvW/0597uHs2bM0ffp02r59u+wpxTlnPndZdvMQP8qegkg4EKX7KiYXapV02GsP9YR68pIA6slLmu5tBTU+QfxwnyutLQRViGGEGBbxAwKIv9XFGJtHRHP79OlDK1eupMrKSn87DND6+fPn6c4776S9e81FHw9zzmWs2r4gfmibWqUCi9J9FZMLpUov9E8aQj2hnrwkgHrykqZ7W0HdGyF+uM+V1haCKsQwQgyT+AEBxJ8KY4wliKhBWl+2bBnJlR+6verr62nKlClWWDWc86RuMVrxQPzQNbNqxRWl+yomF6g9Lwmgnryk6d5W2Mcy1JP7GvDSQlD1BPHDy6xpaCuoQgwjurCJHxBAvK8yxtjrRPTlSZMm0YwZM7zvQBGLjz/+OP3sZz+T3vySc/4VRdzy3A2IH54jhcEMBKJ0X8XkQq23QNhrD/WEevKSAOrJS5rubQU1PkH8cJ8rrS0EVYhhhBhG8QMCiHeVxhibRkSLe/ToQWvWrKHLLrvMO+OKWTpz5gzddtttdOjQIenZdM75EsVc9MQdiB+eYISRPASidF/F5EKtt0PYaw/1hHrykgDqyUua7m0FNT5B/HCfK60tBFWIYYQYVvEDAoj7ahs8eHCX8+fPSyWgzYIFC2j06NHujSpuYdOmTTRr1izp5bnKysruO3bsOKq4y0W7B/GjaGS4oAQCUbqvYnJRQoH4eEnYaw/15GNxlGAa9VQCNFySlUBQ9QTxA0WYk0BQhRjGNIRZ/IAA4q7iGGPfJaKfDB8+nOrq6twZC9HVtbW19Oabb0qPv8c5/2mIXC/IVYgfBWFCI5cEonRfxWTVZbF4fHnYaw/15HFBuDSHenIJEJe3IhBUPUH8QOFB/CixBsIufkAAKTHxRMQY20REo+bNm0djx44t3VDIrly/fj09/PDD0uvNnHPtlrtA/AhZQYbU3aA+4KmAB5NVFbLwNx/CXnuoJ9STlwRQT17SdG8rqPEJ4of7XGltIahCDCNEHcQPCCDFV14ikegphNgfi8Voy5YtdPnllxdvJKRXnDp1ikaOHEnpdJoMw+iVTCYPhDSUjG5D/NApm+rGEqX7KiYXatVh2GsP9YR68pIA6slLmu5tBTU+QfxwnyutLQRViGGEqIv4AQGkuOqLx+PfNwzjR/KcD3neR9Re8twPef6HEOIHqVTqxzrFD/FDp2yqG0uU7quYXKhVh2GvPdQT6slLAqgnL2m6txXU+ATxw32utLYQVCGGEaJO4gcEkMIrkDG2jYi+uHDhQho1alThF2rScvPmzTRz5kwZzVuc82GahGWGAfFDp2yqG0uU7quYXKhVh2GvPdQT6slLAqgnL2m6txXU+ATxw32utLYQVCGGEaJu4gcEkPxVyBi7joj2yK0uW7dulVs/8l+kWQshBI0YMYJOnz4tI+vLOX9XlxAhfuiSSbXjiNJ9FZMLtWox7LWHekI9eUkA9eQlTfe2ghqffP/kjsJyXwzltBBUIZYzxlL71lH8gACSuxpqamrGp9PpV+Tkf/HixaWWTuivmz59Or3xxhsUi8VuaWhoWBf6gC4EAPFDl0yqHUeU7qv4DKhWLYa99lBPqCcvCaCevKTp3lZQ4xPEjwJylUwm6b777qO77rqLHnjgAfOK5uZmevTRR2nChAlkJUv+/oknnqCePXvS+PHjC7CsfpOgCrHcJBKJRJtkMnmuGD/cih/Hj/+Famt/Trt2Hcza7ZgxfWnOnK9SVVWbjG2kjUWLNtGMGaOpY8dPtWrD+TXFhNOqbadOp7Z8/vMjbizZQAguLCXniURiihDiyYkTJ9Ls2bNDEKU/Ls6fP5/WrFkjjf8T5/xJf3oJ3moYxI9EItEhmUyeKIYOPuAVQ8v/tmG9r5YyZqL2/K+nYnpQqfZQT8VkTs22qCc18xJWr4Kqp8iLH5aIsXHjxqy1Yhc9rEb79u2jVatWkfwGtKqq6uK18vdz5841Hwd59dVXX/x9pn769+9PdXV11LFjR2XrNKhCLDcAxtjviegKIvqdEGJF27ZtV9fX1x/O5ZcX4kc24UL2K4WNF16op3vv/fuSxA+3TA3jdt/HB7c+urm+lJwzxv6ViH44efJkuueeewrq3hJPu3fvbp6V8dRTT10cH9atW0cHDhy4KKpmM5hNbC3IAR8aPf3007R8+XJ56On8VCr1Qx+6KIvJMIgf1mRSyP1HRE1VVVXT3nrrra25gKk0AZXvh7Vr19KcOXNa3TsLSbj9Pirvy/KLhkLeP4XYDrJNWO+rJY6Zsk5J5t2vl2rjY744y+mvSrVX7nryKw/yvr5jx46Sxrh8tePl3wv9/JGrT9RT6RnJdS+015DsIdOX7aX3rO6VQdWT75MblT50FZJuWXCPPPIIrVixotWKDue1coXHsGHD6JprrqHa2lratWtXVvMPPfQQ3XTTTWbxDh48+OKqEGnjj3/8o9IDZFCFWEhu/GzDGGskomrZhxDiz4ZhSEVLHmz5VHNz8+o9e/acdfYftPjxxBNb6LnntheM4a67htIDD4wsuL2zYQTEj6JzHo/HnzcM404pcI4bNy4v2+PHj5vjw9SpU83xxCmOFvrhw68PaVYAxX5YW79+vSngGIaxMplMfjsviJA0CIn40UJEsQtjlXXuzHkieuPMmTNf27179zEnbpXuw27ED2edFvr+Ua38wnpfLeU+GUTt+T0+2uun2LEyU+0F6a+zf5Vqr9z15FUe5Gd5+bJWhntRI0GMWV6Mn6in0jMF8eNSdkHVE8SPC+ytb2elUGHfsmINjrKZ9U2VtepDfvu7aNGii1tfcg14lh27+OHmQ2Dpb7firgyqEIvzyvvW9puww7pcXt6OiDYYhvFMMpn8L+vvQYsfmaLOte3FLaUoiR+F5pwxtpmIvvLkk0/S0KFD8yLOthLMLjoU8s21Vx/Ssjlc7Ie17du30/333y/Nvc451+aRN2ETPzLl0zCMZiJam0wm77D+HsQENO+bwXavLXXlR6ZJRiHvn0J9C6pdWO+rpdwng6g9v8dHiB/+vDPKXU9e1Y1zXPKHlvdWdRY/ivhM5/vKtGyZK3QO6FWdel9B3lsM6t4I8YOIrNUe2dLoXAVirfro3LkzffDBB+bjLuUkRx6AKFeNyG0s0qZ8WUKKU/zIJIZ4X0buLQZViO49dWchx03Ybvi4/B8hxH8KIf4jlfrhb9z0mk+4wLYXN3TzX1tKzmOx2L8T0bWrV682V33lelmCqtVmzJgx9K1vfYsee+yxrNterJUi1koyS4y1xoubb76ZXn31VbK26TnFWvtY5txWJ8co+c3UoUOHTJescU2OZ88999zFUJw2M8Uox73bb79d/uk9zrl8Ao4WLx3ED3sihBDHhBD/HovFZsjf+7n1oNACcH7gk/X32muvmedlya2imWpYbi2VKyft21Nl/X700UcXt71Y7xH5O2s7qb225fuvlK02hcZVTLuw3ldLHDPN+6SftZdpcuAcf53bl+3jodySOG3aNJIr2qzPcPbrrWuzjZXZxlYrbnlmnHxZdrKN5/lWHBdTY9naqlR7QdVTvvuq/ey+XPdQ+9/sK7ozjUvObS/22nHe1+X1sgatMdBZN86/5YvnxhtvpBdeeMEsATkWOsdPq84s8UNuH5R1b6/RQmstivVUKJt87XLdC3fu3Hlx65S0I+9/+T7/ZbvfZcqz83OeKvfKoOoJ4keG6rRuenKAkBMcOXBY53rYBx3rw5S8kclCkud/WOd8yN9JMWTSpEnm7zKd+aHSh7F8N8p8b+Ko/d0wjP/p1OlTf/elL/Wmhx66uaTwSznwtNCtL9Kn8eMHluSXdVEiscDV9bpdLHMuhPi03HKwZcsWat++fd4QnSs/cm17scYW+UFMiqb2LTP9+vUzb35NTU0XPyBZH7jl9hN5w5A3OPmNujXxc+4ZfeWVV+iWW24xx7Jcbe1nGGUL8OTJkzRypLml6iQR5QeRlxQaBEHAzwloof7bP/DJ82/sWz9lTVtfKFj3zM985jMXl5NnW/lx7733mu8Pe1srVvnecL63CvXVr3b2Q9KtPjjnFz+PWasl5N9U+30xTC6MmX9nTeaKubaYtk7xQ+Zebk20JpPOWnLWg1M4++STT1qd3bZnzx761Kc+dVGcs09s5bXZxtZsduRk1jmeB7UNOlPtFcO6nG1LqadC7quW+JFr/JE1tXTp0ov319/85jck78vyy85c216siav81xJfrWstgUJ+KSHr6M033zS/THXWr7Nved6gnD/Ivu1trbqyC8BW/DU1NRfH0c2bN9Pw4cNN0VmKHtZE2NlvIbmOWj0VwqTQNrnuhZnO/Mj1+S/X/c4S7bLlWaV7JcSPQqvHo3bOg9SsvXvOPftWd/L3liji/DbA7pIlcFgDoH3bi3MC4lEonpoJ88DmKQiHsb+KH+3+7ktfusaV+OH2wFMphgwb9nlKJHp6Hi7Ej9ZIL3zwkhN9ww/xI9PWE+vpUZnODJLeWR+65IoS+9ki8m/O1Wj2aDKtVCvmgDaIH56/3QIxqJL4MWDAAPrFL36R89Bv57LsbOKHhJfv/CyVnsQG8cPbcreLH5ZQbP+s5RwPpcDm3Hpln2BK0UJ+BrSEZbu3+bYI2sfWbHYyrfzNNV57SSvMn+lKET8Kua86n9po8baPP7mEgVzih1xpaV8Vbs9lJsErU23I+YbzC1b7XMT6myV+FLq93smmlO0VUasnL9+LlviR6V6YSfxwjmm5tlvZ73fF5rmc90qIH15WWB5b+ba9WJfbVTNrGaP8m1whIm+41kqPY8eO0bZt28ybp7X9JdPkpZSBJkAsZldBFWLQcTn7K2X5ZTm2vVhix7ZtvzNFj379utPixb+kSZNq6Oqru1Bz8zl69NFf0IQJg1wLIhE+88NeHq22OhWz7cX6wG1/+lOulR/ZxiG5VNr6Ztv5Ic36cGaJH86Dl63lstaHIvvyXPtS2nwf6J3vF2x7Kd+IxRi7eOBpPi9U3fZi3T+dy/yd2wdkfPYVkpkmGfKbS+eycHmdc9uD/F2mJ7flY+jH38N6Xy3lPhmLxQLd9mKJH86x0j72yiXlzrNinOKDvX7sS8SzTSSyja2Z7GT67Be0+GFfUeRHjRdiM4h6Kua+mm/8sduyj125xI/du3dnfbqV/UtXa5tqpi1+FstsW1Xt8xDnU0Fynevh/FspcxKVxrIg6qmQui60jX1scN4LM4kf2T7/yblmrvtdvjyrdK8Mqp6w7SVLlVrneliJsA8KUthwfssk/y6X8MpJiJwYWOKHZT6bmuv8trbQN01Q7YIqxKDiydZPvoO3hBAbYrFYWQ88tZ8RIh+Ba6342LfvKK1a1UDTp3/ZfCRuvrNECmUdYfHDPOQ2U87dHniaT/zItvoi24cSS6G/4YYbLln5Yc+z8wN7Jj+KWfmBA08LfRd53y6f+CGEaI7FYsofeCr3L8+fP/+SrQnO1ZH2usy28kPuWbdv+cq0YlOlQwnDel8t5T4Z9IGnhaz82Lp16yWPInVuLbDeuZm2F9prMt/YmslOJoEG4kersTLXPbioAypzCfv5Vgxlu9a5CiSf+GHfLpPtjmCtApkxY4b5IAXnt/zWdc46zbQ91nmGSbZ7e75JcSF3L5XGMlXHp2wcrZUfznuhbF+I+JHr85+9JnPl2XpiqfVEQtl3Oe+VQdUTxI8LVemcDFjih/xztpPp7YOOPPxU7sOT535IpdcSP6TdX/3qV/SNb3zjkkfdhmnbiwrfEhQyEJfappRHrgX9tBe7yPHUU7+5ZLuLXfT44IM/kVwdgkfdZq+IUnKeSCSeF0IU/KjbYs78cH7Ilp4/88wzJA8vy7SXN9MHMOf5CXLsufvuu1vdSOU3S3J8cx4yWYz4YT3qVgixMpVK4VG3pQ48JVxnFz+EEKF+1K2sQfmlgaxH55Jt6/762c9+9uJe+Wzih/zmS/6toaHB3EYjX85HTMs2cgWmtaW1BPSeXRLUBzzPHL5gqJQxM2jxQ7LNduaHNaF0jrVWrckwZf3IL7DkS9pyCs/OCbHz/+1jq1wFnMkOxI+/FlQQ9VTIfVWKBU7RzDn+yPM45ERRnuHn3IZSyJkf9vOI5JkfvXv3NucG1jlc9vMf5LjoFHPl+SByBaicX9jFFGs1irUC3bnyI9N5R/YzP+wroHRa+SGE+LNhGFVEtI2Inmpubl69Z8+es84xMYjxKZ/4Ic+Csd8LrYO/rc9k8nqZV/tZLvYxrlOnTjnvd8WIH9b7pVz3yqDujRA/Lihs1gcw68BS+8oPa0mQtfTReaN0Hmol21vih/Xf1rJ1+9JI59MYvP6g4oW9oArRC1/d2GCM/Z6IriCi3wkhVrRt23Z1fX394Vw2vRA/amt/Trt2HczazZgxfWnOnK+aKzrWrdtptpMHmWY668O5AsQND3ltBFZ+FJ3zeDz+mGEYs+Vjru+55568iIsRP6SxbE8NsD6UWKe4W9tbMj2Jynpyi327gPPAZfntknxqjNzTbn2Yk5NFabeQp708/fTTtHz5cunyY5zzf8kLIiQNQvK0F/ObTyGVD6KmqqqqaW+99dbWXIjL+QHP6Zf9Q751+K7cuiJrWX6JYD2RSN4f5YomORG1DgrMJX7IfpwTT2t7jXwvfPrTnzZ/IH6U/mYs5T4ZRO0V8rQX57hmX+ota01+8/n888+bB0A6tx7Yt0vZD73P9MQP+9jq3G7ofNqL/Rv6iK78KPoeXEo95buv2g88zTb+yBqz7pHyHWSvJ7t96ylUzkNx7U+ryrSF3rl1z77FxjlXsJ8zKB85L1cyyfrNtuXL+XQY59NerDFRA/EjkHoqfQRtfWWue6EUOpziR67Pf/bxzHm/y7fCJ9e1XsVaqJ2g5pyRFz/sH6bsA4RzsLEGhX/4h3+g//7v/yZ5g7NOeba+bZL/L1/ZBppCk69Su6AKsdwx19TUjBZCfJhMJt8r1BcvxI9SDzxNJg/Qfff9n0tcXbHiG67P+rCM6i5+lJJzxtj9RPRvEydOpNmzZxdaKtq1k9sV1qxZI1cd3J9MJpfpEmAYxI+ampqniWhHQ0PDikK5lzJhKNQ22hVPIKz31RLHzKK2KRRP05srnBMRb6yqZ0Wl2tO5ntTLvD8eoZ784RpVq0HVU+TFj6gWWKFxB1WIhfqjUju34odKsWTyRXfxoxT+NTU149Pp9CsjRowwDziO6ktu73vjjTcoFovd0tDQsE4XDmEQP0phDfGjFGr+XROl+6qKtSe/oLK2EchVHqo9Ctm/ygv/IfYq1pOf+VLddtjHMtSTWhUWVD1B/FAr78p5E1QhKhd4AQ5B/CgAkmZN4vF4X8Mwdrdr186c/BuG70OocgTlbgu5HeHUqVNy60W/VCq1RzknS3QI4keJ4HBZUQSidF9VdXLhfMJBIdv9ikqyoo3DXnuq1pOi6fbdLdST74gj1UFQ9eT7J3cMVOGu26AKMYyUIH6EMWvufWaMyQO0vrhw4UIaNWqUe4MhsyAPS5s5c6b0+i3O+bCQuZ/TXYgfOmVT3ViidF/FZ0C16jDstYd6Qj15SQD15CVN97aCGp8gfrjPldYWgirEMEKE+BHGrLn3OR6Pf98wjB+NHj2aFixY4N5gyCzMmjWLNm3aJFd9/CCVSv04ZO5D/NApYSGNJUr3VUwu1CrSsNce6gn15CUB1JOXNN3bCmp8gvjhPldaWwiqEMMIEeJHGLPm3udEItFTCLE/FovRli1b6PLLL3dvNCQW5FaXkSNHUjqdllt+eiXlybsavbDyQ6NkKhxKlO6rmFyoVYhhrz3UE+rJSwKoJy9purcV1PgE8cN9rrS2EFQhhhEixI8wZs0bnxljm4ho1Ny5c2ncuHHeGA2BlQ0bNtC8efOkp5s556ND4HJRLkL8KAoXGpdIIEr3VUwuSiwSny4Le+2hnnwqjBLNop5KBIfLMhIIqp4gfqAAcxIIqhDDmAaIH2HMmjc+M8a+S0Q/GT58ONXV1XljNARWamtr6c0335Sefo9z/tMQuFyUixA/isKFxiUSiNJ9FZPVEovEp8vCXnuoJ58Ko0SzqKcSweEyiB+oAXUJhH1g85MsxA8/6apte/DgwV3Onz9/iIjayHM/5Pkfur/kOR/yvA8iOldZWdl9x44dR3WLGeKHbhlVM54o3VcxWVWrBsNee6gn1JOXBFBPXtJ0byuo8QkrP9znSmsLQRViGCFC/Ahj1rzzmTE2jYgWd+/enV566SW67LLLvDOumKUzZ87QxIkT6eDBg9Kz6ZzzJYq56Ik7ED88wQgjeQhE6b6KyYVab4ew1x7qCfXkJQHUk5c03dsKanyC+OE+V1pbCKoQwwgR4kcYs+atz4yx14noy1//+tfpwQcf9Na4QtYWLVpEq1atkh79knP+FYVc89QViB+e4oSxLASidF/F5EKtt0HYaw/1hHrykgDqyUua7m0FNT5B/HCfK60tBFWIYYQI8SOMWfPWZ8ZYgogapNVly5bRkCFDvO1AAWv19fU0ZcoUy5MaznlSAbd8cQHihy9YYdRBIEr3VUwu1Cr/sNce6gn15CUB1JOXNN3bCmp8gvjhPldaWwiqEMMIEeJHGLPmvc+MMfn4k7l9+vShlStXUmVlpfedlMni+fPn6c4776S9e/dKDx7mnJuPetH1BfFD18yqFVeU7quYXKD2vCSAevKSpntbYR/LUE/ua8BLC0HVE8QPL7Omoa2gCjGM6CB+hDFr/vjMGONEFB86dCgtXryY2rZt609HAVo9e/YsTZs2jeTKDyJKcc5ZgN2XpSuIH2XBHrlOo3RfxeRCrfIOe+2hnlBPXhJAPXlJ072toMYniB/uc6W1haAKMYwQIX6EMWv++FxTU9MnnU5vIKIvXH/99bRkyRKqqqryp7MArDY3N5vCx9tvvy17+20sFhvb0NBgLv/Q+QXxQ+fsqhNblO6rmFyoU3fSk7DXHuoJ9eQlAdSTlzTd2wpqfIL44T5XWlsIqhDDCBHiRxiz5p/PjLHeRCQFkGvl+0YKIO3atfOvQ58snz592hQ+kknzaI/3iGgs5/x9n7pTyizED6XSoa0zUbqvYnKhVhmHvfZQT6gnLwmgnryk6d5WUOMTxA/3udLaQlCFqDVEBBcZAoMHD766paVlgxCi36BBg2jhwoXUtWvX0MR/5MgRmjlzJjU2NpJhGLvPnTs3dufOnftCE4BLRyF+uASIywsiEKX7KiYXBZVEYI3CXnuop8BKpaCOUE8FYUKjAgkEVU8QPwpMSFSbBVWIUeWLuPUjkEgkegoh5AqQge3bt6fa2lq69dZblQ/05Zdfprq6Ojp58qT0dadhGGOTyeQB5R330EGIHx7ChKmsBKJ0X8VkVa03QthrD/WEevKSAOrJS5rubQU1PkH8cJ8rrS0EVYhaQ0RwkSNQXQLF0QYAACAASURBVF19VUVFxVIimiCDv+GGG0wRpFevXsqx2L9/Py1dupS2bNli+ba2paVlalNT0x+Uc9ZnhyB++AwY5k0CUbqvYnKhVtGHvfZQT6gnLwmgnryk6d5WUONTYOKHeySwUE4CnHPfa6Wc8aFvEPCDAGPsO0T0OBF1jcVi5lkad9xxhx9dlWTzxRdfNM8mSafT8vojRPQg5/zZkoxpcBHEDw2SGIIQgvqApwIKTC5UyMLffAh77aGeUE9eEkA9eUnTva2gxiffJ7RWYblHAgvlJADxo5z00XeYCcTj8SuIaJFhGN+WcfTo0YPGjRtH48ePpyuvvDLw0D7++GNat24drV+/ng4ePGj2L4R4nohmpFKpPwXukEIdQvxQKBkauxLUBzwVEGJyoUIWIH6olQV9vAn7WIbxSa1aDKqefBc/1MIKb0AABECgPATi8fhEwzDmyLNALA/GjBljCiFDhgzx3an6+npT8Ni4caO9r51CiEdTqdQa3x0IQQcQP0KQJA1cDOoDngqoMLlQIQsQP9TKgj7ehH0sw/ikVi0GVU8QP9TKO7wBARDQnABj7CYiupuIbrdC7d27N1VXV9PAgQPNn549e7qmcODAAWpqaqJ33nnH/Pf991s9rXY1ET3DOX/NdUcaGYD4oVEyFQ4lqA94KiDA5EKFLED8UCsL+ngT9rEM45NatRhUPUH8UCvv8AYEQCAiBOLxeC/DMOSZIFII+Zw97G7dutGAAQOof//+1KFDB+rYsWOrf+XvTpw4Yf4cP3681b+7du0yBY/Dhw87SX4oBQ8hxLOpVGp/RDAXFSbEj6JwoXGJBIL6gFeie55ehsmFpzhdGwt77aGeXJeApwZQT57ijLyxoOoJ4kfkSw0AQAAEyk1g0KBBwyoqKoYJIcwfwzC6ufVJCHHYMIxt8qelpWVbY2PjNrc2db8e4ofuGVYjvqA+4KkQLSarKmThbz6EvfZQT6gnLwmgnryk6d5WUOMTxA/3uYIFEAABEPCUAGPsOimCxGKxvul0uothGF2ISP50FULI/+8shDhmGMbRC09pOSqEOBqLxY6m0+k9UvDgnL/rqVMRMAbxIwJJViDEoD7gKRAqYXKhQhYgfqiVBX28CftYhvFJrVoMqp4gfqiVd3gDAiAAAiBQJgIaix/HiKjTpk2bqHPnzmWii24lgWPHjtHo0aPlf37COdc+GYwx1J4ipa9D7aGeFCkmTcYy1FM06wnihzp5hycgAAIgAAJlJKCx+LGDiK5fsmQJfelLXyojYXT961//mqZNmyZBvM05H6w7EcYYak+RJOtQe6gnRYqJiFBP6uRCB0+CrCeIHzpUDGIAARAAARBwTUBX8SORSMwSQszv06cPTZ48mfr164cVIK6rpTgD8lv33bt30/Lly2nv3r1kGMbsZDK5oDgr4WuN2it/znSqPdQT6slLAqgnL2mWZqsc4xPEj9JyhatAAARAAAQ0I6Cr+CHTxBh7i4iGapaysIaznXP+xbA6X6zfqL1iifnaPvS1h3rytT6KNY56KpYY2uciEEg9QfxAEYIACIAACIDAXwWCuUQ0T/5wzh/WDcqFb7kmEFFveQaIbvEpHs8nRPS+YRhro7Diw5kL1F5Zq1O72kM9oZ68JIB68pJm0bYCH58gfhSdI1wAAiAAAiCgIwHdxY+w58w6mZ9zjs8uYU9miPy/8CjyX0iXW1pavorHhocoeXAVBEAABBwE8AECJQECIAACIAACEVj5EfYkQ/wIewbD6X88Hl9mGMZk6b0QYnkqlZoSzkjgNQiAAAiAAMQP1AAIgAAIgAAIQPxQvgYgfiifIi0dZIzJZdkdLwR3nHOOLWNaZhpBgQAIRIEAxI8oZBkxggAIgAAI5CWAbS95EZW1AcSPsuKPZOeJROIfhRD/YRc/DMP4ZjKZ/K9IAkHQIAACIBByAhA/Qp5AuA8CIAACIOANAYgf3nD0ywrED7/Iwm42Aoyxl4hIHhJ88SWEWJtKpW4DNRAAARAAgfARgPgRvpzBYxAAARAAAR8IQPzwAaqHJiF+eAgTpvIS6Nu3b9uqqqo/E1EbR+Nzzc3Nn96zZ8/ZvEbQAARAAARAQCkCED+USgecAQEQAAEQKBcBiB/lIl9YvxA/CuOEVt4QYIx9k4j+jYg6OCyeIKJ/4pzL7TB4gQAIgAAIhIgAxI8QJQuuggAIgAAI+EcA4od/bL2wDPHDC4qwUSgBxthWIhqRpf0bnPMbCrWFdiAAAiAAAmoQgPihRh7gBQiAAAiAQJkJQPwocwLydA/xQ+386OTdkCFDup07d+4jIqrMEtf5Nm3afLa+vv6wTnEjFhAAARDQnQDED90zjPhAAARAAAQKIgDxoyBMZWsE8aNs6CPXcTwef4CIHjMM49OZghdCyLNAfphKpZ6IHBwEDAIgAAIhJgDxI8TJg+sgAAIgAALeEYD44R1LPyxB/PCDKmxmIsAYe4eI+uehs4tzPgAEQQAEQAAEwkMA4kd4cgVPQQAEQAAEfCQA8cNHuB6YhvjhAUSYKIgAY+wUEbXL0/i0YRiJZDL5XkFG0QgEQAAEQKDsBCB+lD0FcAAEQAAEQEAFAhA/VMhCdh8gfqidH128SyQSbYQQvyWi47aYqi/8d5Ptdx1jsdi9DQ0Nm3SJHXGAAAiAgO4EIH7onmHEBwIgAAIgUBABiB8FYSpbI4gfZUMf+Y5Re5EvAQAAARDQhADED00SiTBAAARAAATcEYD44Y6f31djAuo3YdjPRgC1h9oAARAAAT0IQPzQI4+IAgRAQCMCjLHrhBDDYrFY33Q63cUwjC5EJH+6CiHk/3cWQhwzDOMoER0hoqNCiKOxWOxoOp3eYxjGNs75uxohCSQUiB+BYC65E0xAS0aHC10SQO25BIjLQQAEQEARAhA/FEkE3AABEIgugUGDBg2rqKgYJgUP+WMYRje3NIQQh6UIIn9aWlq2NTY2bnNrU/frIX6onWFMQNXOj87eofZ0zi5iAwEQiBIBiB9RyjZiBQEQUIZAPB7vZRjGd4jobiL6nN2xbt260YABA6h///7UoUMH6tixY6t/5e9OnDhh/hw/frzVv7t27aJ33nmHDh8+7Iz1QyJ6RgjxbCqV2q8MCIUcgfihUDIyuIIJqNr50dk71J7O2UVsIAACUSIA8SNK2UasIAACZSfAGLvpguBxu+VM7969qbq62hQ85L89e/Z07eeBAwdo586d5k9TUxO9//77dpurpRDCOX/NdUcaGYD4oXYyMQFVOz86e4fa0zm7iA0EQCBKBCB+RCnbiBUEQKBsBOLx+ETDMOYQ0UDLiTFjxtC4ceNoyJAhvvtVX19P69evp40bN9r72imEeDSVSq3x3YEQdADxQ+0kYQKqdn509g61p3N2ERsIgECUCPguflg3jChB1TFWzrnvtaIjN8QEAvF4/AoiWmQYxrcljR49epiCx/jx4+nKK68MHNDHH39M69atM4WQgwcPmv0LIZ4nohmpVOpPgTukUIcQPxRKRgZXMAFVOz86e4fa0zm7iA0EQCBKBHyf0EL80KOcIH7okUdEESwBxpg80+Nx+ZSWWCxG06ZNozvuuCNYJ3L09uKLL9KSJUsonU7LVvKpMQ9yzp9VxsGAHYH4ETDwIrvDBLRIYGjuGQHUnmcoYQgEQAAEykogMPEjmUyWNVB0XhqBRCJhXgjxozR+uCqaBKqrq6+qqKhYSkQTJIGRI0fS1KlTqVevXsoB2b9/P9XV1dHWrVst39a2tLRMbWpq+oNyzvrsEMQPnwG7NI8JqEuAuLxkAqi9ktHhQhAAARBQigDED6XSoZ4zED/Uywk8UptAIpHoKYTYIM/2aN++PdXW1tKtt96qttNE9PLLL5siyMmTJ6WvOw3DGJtMJg8o77iHDkL88BCmD6YwAfUBKkwWRAC1VxAmNAIBEAAB5QlA/FA+ReV1EOJHefl70bsQDW0Mo+acF7ZgIzeBgQMHXt2mTZsNQoh+gwYNooULF1LXrl1Dg+3IkSM0c+ZMamxsJMMwdldUVIzdsWPHvtAE4NJRiB8uAfp8OSagPgOG+awEUHsoDhAAARDQgwDEDz3y6FsUED/yoxXi53OJxLz8LcvT4g9/6HLUMMT/fdVVozaVx4No9MoY601EcsXHtfJ9I8/SaNeuXeiCP336tHk2yYWtiu8R0VjOeavn5IYuqAIdhvhRIKgyNcMEtEzg0S2h9lAEIAACIKAHAYgfeuTRtyggfuRHq7r4cehQJzp6tP25zp3//I8QQPLns5QWNTU1fdLptBQ+vnD99debwkdVVVUpppS4prm52RRA3n77benPb2Ox2NiGhoa9SjjnoxMQP3yE64FpTEA9gAgTJRFA7ZWEDReBAAiAgHIEIH4olxK1HIL4kT8fYRA/Dh3qTG3bnoMAkj+dJbVgjHEiig8ZMsQUPtq2bVuSHZUuOnv2LE2fPp22b98u3UpxzplK/vnhC8QPP6h6ZxMTUO9YwlJxBFB7xfFCaxAAARBQlQDED1Uzo4hfED/yJyIs4oeMBAJI/nwW24IxJrc8ze3Tpw+tXLmSKisrizWhbPvz58/TnXfeSXv3mos+HuacK7u9ywuIED+8oOifDUxA/WMLy7kJoPZQISAAAiCgBwGIH3rk0bcoIH7kRxsm8QMCSP58FtOCMSafBd0gr1m2bBnJlR+6verr62nKlClWWDWcc22fWw7xQ+3qxQRU7fzo7B1qT+fsIjYQAIEoEYD4EaVslxArxI/80MImfkAAyZ/TQlswxl4noi9PmjSJZsyYUehloWv3+OOP089+9jPp9y85518JXQAFOgzxo0BQZWqGCWiZwKNbHHiKGgABEAABTQhA/NAkkX6FAfEjP9kwih8QQPLnNV8Lxtg0Ilrco0cPWrNmDV122WX5Lgnt38+cOUO33XYbHTp0SMYwnXO+JLTB5HAc4ofaWYX4oXZ+dPYOtadzdhEbCIBAlAhA/IhStkuIFeJHfmhhFT8ggOTPbbYWgwcP7nL+/HmpBLRZsGABjR49unRjIbly06ZNNGvWLOntucrKyu47duw4GhLXC3YT4kfBqMrSEBPQsmBHp0RY+YEqAAEQAAFNCED80CSRfoUB8SM/2TCLHxBA8uc3UwvG2HeJ6CfDhw+nurq60oyE8Kra2lp68803peff45z/NIQh5HQZ4ofaGYX4oXZ+dPYOtadzdhEbCIBAlAhA/IhStkuIFeJHfmhhFz8ggOTPsbMFY2wTEY2aN28ejR07tngDIb1i/fr19PDDD0vvN3POtVvuAvFD7cLEBFTt/OjsHWpP5+wiNhAAgSgRgPgRpWyXECvEj/zQdBA/IIDkz7PVIh6P9zIM4/exWIy2bNlCl19+eeEXh7zlqVOnaOTIkZROp0kI8b9SqdT+kIfUyn2IH2pnExNQtfOjs3eoPZ2zi9hAAASiRADiR5SyXUKsED/yQ9NF/IAAkj/XskU8Hv++YRg/kud8yPM+ovaS537I8z+EED9IpVI/1il+iB9qZxMTULXzo7N3qD2ds4vYQAAEokQA4keUsl1CrBA/8kPTSfyAAJI/34yxbUT0xYULF9KoUaPyX6BZi82bN9PMmTNlVG9xzofpFB7ED7WziQmo2vnR2TvUns7ZRWwgAAJRIgDxI0rZLiFWiB/5oekmfkAAyZ7zeDze1zCM3XKry9atW8kwfB9C8xdgwC2EEDRixAg6ffq0XP3RL5VK7QnYBd+6g/jhG1pPDGMC6glGGCmBAGqvBGi4BARAAAQUJOD7J3frhpFMJhUMHy7lIwDxIx8hIh3FDwggmfNeU1MzPp1OvyIn/4sXL85fHJq2mD59Or3xxhsUi8VuaWhoWKdLmBA/1M4kJqBq50dn71B7OmcXsYEACESJAMSPArK9bt06euSRR+ihhx6i8ePHm1ccP37c/H85Cbj66qvN3zU3N9Ojjz5KEyZMIEs0KMC80k0gfuRPjxfix7p1O+mRR17N2dmKFd+gRKJn1jbShnyNHz+wVZtDhzrRoUOd8weSoUXbtufOde7853+86qpR8ukmWr0SiUSbZDJ5rpigEonEFCHEkxMnTqTZs2cXc6lWbefPn09r1qyRMf0T5/xJXYKD+KF2JjEBVTs/OnuH2tM5u4gNBEAgSgQiL35IEaO2tpZ27dqVNe920cNqJFeybNu2jR544IFW18nfL126lOrq6qhjx46X2LQEko0bN5p/6969Oz3xxBMXBRTVii+K4kcikfiLEKKSiNYbhvFMMpn8r1x58Ur8yCRcWP1KYeOzn+1YkvjhtqbOnGm7qKrqlgfd2lHtesbY74noCiL6nRBiRdu2bVfX19cfzuUnY+xfieiHkydPpnvuuaegkOSYcN9995nvdXlWxlNPPWU+LlaKplJYPXDgwCXjiNOwasLq008/TcuXL5fbXuanUqkfFgQiBI0gfqidJExA1c6Pzt6h9nTOLmIDARCIEoHIix/OZEsh4rXXXsspSMiJiFzyPmnSJPNyKYAcOnQoa92sWLHCXAmyb98+s+29997bagXJCy+8YP6uqqpKudqLovhhfci5kIzj8l8hxCohxAuNjY3ysMtWr6DFj337jtIDD6ymQ4dOFFQv3bt3oCeeuJ2uvrpLQe0vbWTMM4yvPVzixcpexhhrJKLqC/n9s2EY8g0o8/tUc3Pz6j179px1Oh+Px583DOPOuXPn0rhx4/LGZomrU6dOvTgGyGtVEz+kCLNjxw6aM2dOQePQ+vXrzRgMw1iZTCa/nRdESBpA/FA7UZiAqp0fnb1D7emcXcQGAiAQJQIQPy5k29raYgkVVhFYk5eampqL385aqz6+9a1vtdr6IoUTSwxxFpFlR26JsbbOhKHQIH78LUuGYfwPEUnF4WkhxM855+/+deL887lEYp6bfGbbsmLZLOfKDyL9xQ9H7mSO2xHRBufKH8bYZiL6ypNPPklDhw7Nm3IpeNrFDucFqqz8KFb82L59O91///0ynNc559o88gbiR96SLmsDTEDLij/SnaP2Ip1+BA8CIKARAYgfROYqj+eeey5jWp3bUuyrPo4dO2ZeIwUCKYisXbv24jen0uawYcMunv2RbzuMqjUF8SNjZs4QUYu1XeL116f17NTpU//sJocQP9zQK+1a+8qPHBaslT//KYT4j1gs9u9EdO3q1avpmmuuydmxtd3FajRmzBiSguljjz2WdeWHcxueteXO2vZy880306uvvkrWtjnnljxLxJV99u/fv9X2O2vlmbVKzRJ6neNfpm1+zkA/+OADuv322+Wv3+OcX1daBtS7CuKHejmxe4QJqNr50dk71J7O2UVsIAACUSIA8SNDtuUEQu7Ll5OCTp06mcvArS0p9gnEXXfdZa4Gkb+T22DkoajWOR9yErNo0SKaMWOG+btCv+FVrfh0ObjVR65//u53v9Tuvvv+Puamj2IPPC1060v//j2oru5r1LHjp0p2b9asdVs2bXp3ZMkGNLlQrvwRQnyaiGJbtmyh9u3b543MufLD+f/2ccG5Osy+ZaZfv37mYcpNTU0Xt+RZY5HcfiLfp9KWFGCt84bsqzmko6+88grdcsst5liWq20h2+9OnjxJI0eaJXGSiPKDyEtKuQbzOOfabfVSjnKRDmECWiQwNPeMAGrPM5QwBAIgAAJlJQDx4wJ++zeu9m8+sy1bl9+eylUhzgNMndm0BBKIH2Wtcz8790z8kE46n9RiOZ5v24sUQ1ataqDp079MVVVtPI0X4sdfcV4QP+RE3/BD/Mi09UQKsD179qSbbrrJFD8GDx7catuctdVOriiRBzdbZ4tIfzOJslZhOP9W7LYXiB+evsVgrEACmIAWCArNPCeA2vMcKQyCAAiAQFkIQPzIs+3FnhVrmbh9abm1LUauELFWemzdutW8TJ7tYW1/kf9v3xZTlmyX0Cm2vVwKTQhxxjCMsm57scQOKZZIYUSKHrt3H6Jt235HDzzw10UayeQBWru2kebM+apLQSRyZ37Yk17ythdLgLCf+ZFr5Yd9XLE7IAVUeSBypsdoW6KqJX44n1pljU/yX3m9tV1G2rdv6StW/NB120sJQyQuCZAAJqABwkZXrQig9lAQIAACIKAHAYgfGfJoP9dDPo5SvuTKELkiZMqUKSSfzvKZz3ym1eMp5d+tp7bIp8VY4odl3vnUh7CUD8SPv2VKpQNPrTNCBg68qtWKjyee2ELDhn3+4iNx850lUlgdRk78MA88FUJsiMVirR517PbA03ziR7YnrmR71K21MuSGG264ZOWHPbdOcSOTH8U87UXXA08Lez+gVbkIYAJaLvLoF7WHGgABEAABPQhA/LiQR/uBpHLPu/Uo2507d9KBAwdaCR1W6u0TCHn46bZt28x2cqJhiR/S7kcffWSuAsn0RBm7aFLIXvugyw7iB7X65l+FR93KGrBEjs6dL8+43cUSPW666TpavPiXNGlSDR5163jzlPKo20Qi8bwQouBH3RZz5ofzDA/p7jPPPEM33nijuUpDrtyQY4l1poccW+SqEimASJFW/vvHP/7x4qHL0t6vfvUruvvuu82xxy5uOB/pXezKD+tRt0KIlalUSptH3QY9vqK/4ghgAlocL7T2jgBqzzuWsAQCIAAC5SQA8ePCtpeGhoaLkwrnyg+naGFNUqqrq82Jxu7du2np0qWtDhq0xA+7ECJ/53zigvOJDOUshkx9R1H8SCQSfxFCVBLReuejTjMx8upRt4888mrO9K9Y8Q1zRcfx43+hRYs20YwZo+mTT05nFD+cK0Dc1ZW2Kz9+T0RXWE/tadu27er6+vrDuVjF4/HHDMOYPXnyZLrnnnvyYi1G/Mg0Plhb7ayVH1IIkSvMrO0tzkdz25/cIp8uI8cnKao6zyaSBzHLp8bIw1KlcJLtzKNsAT799NO0fPly+efHOOf/khcEGoCABwQwAfUAIkyURAC1VxI2XAQCIAACyhGItPhhTQisQwTtwoR94iCzZm17+drXvkZvvvkmTZ8+3Uym/DZWvqxJhnMC43xUrnIVkMehKIofjLFvNjc3r96zZ8/ZQvLllfgh+yr2wNPm5nP06KO/oI0b97RydcyYvh6c9WGZ1FP8qKmpGS2E+DCZTL5XSJ5lG8bY/UT0bxMnTqTZs2cXepl27ebPn09r1qyRh8Den0wml2kXIAJSkgAmoEqmJRJOofYikWYECQIgEAECkRY/IpBf1yFGUfwoFpoX4kexfQbbXk/xoxSGNTU149Pp9CsjRowwt8ZF9SXF3zfeeINisdgtDQ0Nf93nhxcI+EwAE1CfAcN8VgKoPRQHCIAACOhBAOKHHnn0LQqIH/nRQvzIz0iXFvF4vK9hGLvbtWtnTv4Nw/chVDl0QgiSB6yeOnWKhBD9UqlU62VHynkMh3QhgAmoLpkMXxyovfDlDB6DAAiAQCYCvn9yt24Y8nA+vMJHAOJH/pxB/MjPSKcWjLFtRPTFhQsX0qhRo3QKraBYNm/eTDNnzpRt3+KcDyvoIjQCAQ8IYALqAUSYKIkAaq8kbLgIBEAABJQjAPFDuZSo5RDEj/z5gPiRn5FOLeLx+PcNw/jR6NGjacGCBTqFVlAss2bNok2bNslVHz9IpVI/LugiNAIBDwhgAuoBRJgoiQBqryRsuAgEQAAElCMA8UO5lKjlEMSP/PmA+JGfkU4t4vF4L8Mwfh+LxWjLli10+eWX6xRezljkVpeRI0dSOp2W4sf/SqVS+yMTPAItOwFMQMuegsg6gNqLbOoROAiAgGYEIH5ollCvw4H4kZ8oxI/8jHRrwRjbRESj5s6dS+PGjdMtvKzxbNiwgebNmyf/vplzPjoygSNQJQhgAqpEGiLpBGovkmlH0CAAAhoSgPihYVK9DAniR36aED/yM9KtBWPsu0T0k+HDh1NdXZ1u4WWNp7a21nzUNxF9j3P+08gEjkCVIIAJqBJpiKQTqL1Iph1BgwAIaEgA4oeGSfUyJIgf+WlC/MjPSLcWgwcP7nL+/PlDRNRGnvshz//Q/SXP+ZDnfRDRucrKyu47duw4qnvMiE8tApiAqpWPKHmD2otSthErCICAzgQgfuicXQ9ig/iRHyLEj/yMdGzBGJtGRIu7d+9OL730El122WU6hmnGdObMGZo4cSIdPHhQ/u90zvkSbYNFYMoSwARU2dRo7xhqT/sUI0AQAIGIEID4EZFElxomxI/85CB+5GekawvG2OtE9OWvf/3r9OCDD+oaJi1atIhWrVol4/sl5/wr2gaKwJQmgAmo0unR2jnUntbpRXAgAAIRIgDxI0LJLiVUiB/5qUH8yM9I1xaMsQQRNcj4li1bRkOGDNEu1Pr6epoyZYoVVw3nPKldkAhIOQI1NTWj0+n0U0R03OZc9YX/brL9rqNhGF9IJpPnlAsCDmlDAOKHNqlEICAAAhEnAPEj4gWQL3yIH/kIEUH8yM9I5xaMMfn4k7l9+vShlStXUmVlpTbhnj9/nu68807au3evjOlhzrn5qBe8QMBvAolE4lohhBTa2uXp6zTnPDrPm/YbPOxnJADxA4UBAiAAAnoQgPihRx59iwLiR360ED/yM9K9BWOME1F86NChtHjxYmrbtm3oQz579ixNmzaN5MoPIkpxzlnog0IAoSLAGHuHiPrncXoX53xAqAKDs6EjAPEjdCmDwyAAAiCQkQDEDxRGTgIQP/IXCMSP/Ix0b1FTU9MnnU5vIKIvXH/99bRkyRKqqqoKbdjNzc2m8PH222/LGH4bi8XGNjQ0mMs/8AKBoAjE4/EHiOgxwzA+nalPIcSfieiHqVTqiaB8Qj/RJADxI5p5R9QgAAL6EYD4oV9OPY0I4kd+nBA/8jOKQgvGWG8ikgLItfJ9IwWQdu3yrdhXj8zp06dN4SOZNI/2eI+IxnLO31fPU3ikO4EhQ4Z0O3fu3EdElG0v2fk2bdp8tr6+/rDuLBBfeQlA/Cgvf/QOAiAAAl4RgPjhFUlN7UD8JsWgYgAAIABJREFU0DSxRYQlxE/bGcZ3TxdxSWSbDh48+OqWlpYNQoh+gwYNooULF1LXrl1Dw+PIkSM0c+ZMamxsJMMwdp87d27szp0794UmADiqHQHG2FYiGpElsDc45zdoFzQCUo4AxA/lUgKHQAAEQKAkAhA/SsIWnYsgfkQn14jUGwKJRKKnEEKuABnYvn17qq2tpVtvvdUb4z5aefnll6muro5Onjwpe9lpGMbYZDJ5wMcuYRoE8hJgjH2TiP6NiDo4Gp8gon/inP9HXiNoAAIuCUD8cAkQl4MACICAIgQgfiiSCFXdgPihambgl8oEqqurr6qoqFhKRBOknzfccIMpgvTq1Us5t/fv309Lly6lLVu2WL6tbWlpmdrU1PQH5ZyFQ5Ej0Ldv37ZVVVXybI82juDPNTc3f3rPnj1nIwcFAQdOAOJH4MjRIQiAAAj4QiAw8cMX72E0MAKcc99rJbBg0BEIBESAMfYdInqciLrGYjHzLI077rgjoN7zd/Piiy+aZ5Ok02nZ+AgRPcg5fzb/lWgBAsERiMfjLxmGYQqJttdazvltwXmBnqJMAOJHlLOP2EEABHQi4PuE1rph6AQtirFA/Ihi1hGzFwTi8fgVRLTIMIxvS3s9evSgcePG0fjx4+nKK6/0oouibHz88ce0bt06Wr9+PR08eNC8VgjxPBHNSKVSfyrKGBqDQAAEEonEPwoh5PaWjhe6O24YxjeTyeR/BdA9ugABgviBIgABEAABPQj4Ln7ogQlRgAAIgIA7AvF4fKJhGHPkWSCWpTFjxphCyJAhQ9wZL+Dq+vp6U/DYuHGjvfVOIcSjqVRqTQEm0AQEykaAMfaJXfzgnHcqmzPoOHIEIH5ELuUIGARAQFMCED80TSzCAgEQUJMAY+wmIrqbiG63POzduzdVV1fTwIEDzZ+ePXu6dv7AgQPU1NRE77zzjvnv+++3elrtaiJ6hnP+muuOYAAEAiAQj8eXGYYxWXYlhFieSqWmBNAtugABkwDEDxQCCIAACOhBAOKHHnlEFCAAAiEjEI/HexmGIc8EkULI5+zud+vWjQYMGED9+/enDh06UMeOHVv9K3934sQJ8+f48eOt/t21a5cpeBw+fNhJ5EMpeAghnk2lUvtDhgvuRpzAoEGDhlVUVPxCYmhpaflqY2PjtogjQfgBEoD4ESBsdAUCIAACPhKA+OEjXJgGARAAgUIIXJjYDRNCmD+GYXQr5LpcbYQQhw3D2CZ/WlpatmGy6Jao+tcnEokhQoj/l4iuI6Jr1PcYHtoIfEBE7xqG8b+TyWQ9yKhFAOKHWvmANyAAAiBQKgGIH6WSw3UgAAIg4BMBxth1UgSJxWJ90+l0F8MwuhCR/OkqhJD/31kIccwwjKMXntJyVAhxNBaLHU2n03uk4ME5f9cn92BWQQLxePxuwzD+XUHX4FKRBIQQ/08qlXqmyMvQ3EcCED98hAvTIAACIBAgAYgfAcJGVyAAAiAAAiDgNYGBAwdeXllZ+Vsi6i4fpTxhwgT63Oc+RxUVFV53BXs+EGhpaaEPP/yQ1q5dS/Lx00R06Pz581/YuXPnKR+6g8kSCED8KAEaLgEBEAABBQlA/FAwKXAJBEAABEAABAolwBj7v4hog3xq0LJlywq9DO0UJDBlyhSST2YiorGc8/9PQRcj6RLEj0imHUGDAAhoSADih4ZJRUggAAIgAALRIcAYm0ZEi2+//XaaOXNmdALXMNKFCxfS6tXyYUw0nXO+RMMQQxkSxI9Qpg1OgwAIgMAlBCB+oChAAARAAARAIMQEGGNziWjed/9/9u4YxBaETNPwuWggrIGhggoiGyxog92ggYErCBrsInQggonMYA8I6m4gJquuuokY7KogKMwgiIlBg+wGbTapYl9BlAkWEVTQSEwWDJS7nAvVlJdbWmV9VfWe4rkgM8495z//ef5qGV/qVP3TPx1eeOGFE34nVv/Wt751+OY3v3mE+O8PHz78ApGGgPjRuIMtCBAgcF0B8eO6gp5PgAABAgTuUED8uEP88UuLH2PQ0TjxYwRpDAECBO5YQPy44wN4eQIECBAgcB0B8eM6eq3nih+te5xtI34072IrAgQIXFVA/LiqmMcTIECAAIGQgPgROsY1VxE/rgl4Q08XP24I1lgCBAjcsoD4ccvgXo4AAQIECCwFxI+l5t3OEj/u1v+iVxc/mnexFQECBK4qIH5cVczjCRAgQIBASED8CB3jmquIH9cEvKGnix83BGssAQIEbllA/LhlcC9HgAABAgSWAuLHUvNuZ4kfd+t/0auLH8272IoAAQJXFRA/rirm8QQIECBAICQgfoSOcc1VxI9rAt7Q08WPG4I1lgABArcsIH7cMriXI0CAAAECSwHxY6l5t7PEj7v1v+jVxY/mXWxFgACBqwqIH1cV83gCBAgQIBASED9Cx7jmKuLHNQFv6Onixw3BGkuAAIFbFhA/bhncyxEgQIAAgaWA+LHUvNtZ4sfd+l/06uJH8y62IkCAwFUFxI+rink8AQIECBAICYgfoWNccxXx45qAN/R08eOGYI0lQIDALQuIH7cM7uUIECBAgMBSQPxYat7tLPHjbv0venXxo3kXWxEgQOCqAuLHVcU8ngABAgQIhATEj9AxrrmK+HFNwBt6uvhxQ7DGEiBA4JYFxI9bBvdyBAgQIEBgKSB+LDXvdpb4cbf+F726+NG8i60IECBwVQHx46piHk+AAAECBEIC4kfoGNdcRfy4JuANPV38uCFYYwkQIHDLAuLHLYN7OQIECBAgsBQQP5aadztL/Lhb/4teXfxo3sVWBAgQuKqA+HFVMY8nQIAAAQIhAfEjdIxrriJ+XBPwhp4uftwQrLEECBC4ZQHx45bBvRwBAgQIEFgKiB9LzbudJX7crf9Fry5+NO9iKwIECFxVQPy4qpjHEyBAgACBkID4ETrGNVcRP64JeENPFz9uCNZYAgQI3LKA+HHL4F6OAAECBAgsBcSPpebdzhI/7tb/olcXP5p3sRUBAgSuKiB+XFXM4wkQIECAQEhA/Agd45qriB/XBLyhp4sfNwRrLAECBG5ZQPy4ZXAvR4AAAQIElgLr+PH973//8Ktf/erwiU984spr/vGPfzx86UtfOrz00kuHj370o4c3v/nNf/esK7/4PXiC+NE8ovjRvIutCBAgcFUB8eOqYh5PgAABAgRCAqX4cQwnP/rRjw6f/exnD695zWsO1wkplyH+5S9/efj85z9/+MIXvnB4y1vecpmnpB8jfjTPI34072IrAgQIXFVA/LiqmMcTIECAAIGQQCl+fP3rX38sc/ZdI+LH1b5QxI+red3Wo8WP25L2OgQIELhZAfHjZn1NJ0CAAAECNypwk/Hj7GMsv/nNbw5f/epXD6973esefzfHF7/4xcfv6W1ve9vj//vxuzzOPu5y9maP/0X++Lyzj9A8bdYxlnz7299+/JQPfOADr3zHyJNgf/jDHw6f+tSnDj/72c9eec1f/OIXhxdeeOGVhx6f/+lPf/rwla985fDe97738J3vfOfx3z1tv+NHcs5/rOeiPV5++eXDiy++eHj729/+eO7xz+c+97nDM8888/j5v/3tb1/Z52hz3T/ix3UFb+b54sfNuJpKgACB2xYQP25b3OsRIECAAIGhwE3Fj4997GOPg8brX//6V0LB8WMmx+jwvve973AWM87//UXf+fG0WcewcPzz3HPPHc7ixvPPP3/44Ac/+Bc6Z6/zzne+8/HfHR/785///PDud7/78OTHXp4WWJ7c88l5f22P498dA8sxeBxf++zfn4Wa46JPGl3ntGfx48GDB//66NGj/3idWZ67F3j48KH/v3nPaiIBAgRuTcB/iN8atRciQIAAAQJ7gZuKH8dNf/e731343RjHv3/yYy0XxY/LzDo+9/gDUi+KH+cjy5niRfHjLJQcH3cMFl/72tde+c6Vp+19/irn93jyuWeR5pOf/OTjaPO3Zl312uLHVcVu9/Hix+16ezUCBAisBcSPtah5BAgQIEDgFgVuIn4cP9byhje84XAMAed/kOgxNpx93OPsLZ7/uMrT4sdFs86+i+I81ZMfRzn7u/Mfezn/ehfFj+N3kJzFiae9znHu2Zzjd5Gc//jM8e/O9jj72MvZD3C9KH6c/yGv1zm9j71cR89zCRAgQIDAXxcQP3yFECBAgACBExa4ifhx/Dkdx+/COP68i7Of9fHkx0WOZE/+dpeLvvPjyVlPiwhPPvdpJ3nyIyyXjR9PfufHk1Hl/HdynN9D/DjhfzCsToAAAQIEnhAQP3xJECBAgACBExa4qfhx/A6PYwj48Y9//Bc/NPT8z944/hDSN77xja98NOav/baX87OO3MfnnkWHs+8oef/73/8XP4j0+LhjKHnppZcOH/7whx9f6fxHbS4TP57280SOM457v/Wtb/2re4gfJ/wPhtUJECBAgID44WuAAAECBAjcH4GbjB9HpWO0+MEPfvD4fx7/nP8tJ+95z3se/wDUs4+F/K1fdXt+1u9///tXPm5y/AjKa1/72sf/Ov9bWM6u9LTfMHP221XOflPL+d/2cv5jL2cB5ey3xRz//dkPMD3+7+c/FvPkHuLH/fnnxDshQIAAAQK+88PXAAECBAgQOGGBdfw4YYqTX93P/Dj5E3oDBAgQIBAWED/Cx7EaAQIECBD4WwLix98SOp2/Fz9O51Y2JUCAAIHTExA/Tu9mNiZAgAABAq8IiB/354tB/Lg/t/ROCBAgQKAnIH70bmIjAgQIECBwaQHx49JU+QeKH/kTWZAAAQIETlhA/Djh41mdAAECBAiIH/fna0D8uD+39E4IECBAoCcgfvRuYiMCBAgQIHBpAfHj0lT5B4of+RNZkAABAgROWED8OOHjWZ0AAQIECIgf9+drQPy4P7f0TggQIECgJyB+9G5iIwIECBAgcGkB8ePSVPkHih/5E1mQAAECBE5YQPw44eNZnQABAgQIiB/352tA/Lg/t/ROCBAgQKAnIH70bmIjAgQIECBwaQHx49JU+QeKH/kTWZAAAQIETlhA/Djh41mdAAECBAiIH/fna0D8uD+39E4IECBAoCcgfvRuYiMCBAgQIHBpAfHj0lT5B4of+RNZkAABAgROWED8OOHjWZ0AAQIECIgf9+drQPy4P7f0TggQIECgJyB+9G5iIwIECBAgcGkB8ePSVPkHih/5E1mQAAECBE5YQPw44eNZnQABAgQIiB/352tA/Lg/t/ROCBAgQKAnIH70bmIjAgQIECBwaQHx49JU+QeKH/kTWZAAAQIETlhA/Djh41mdAAECBAiIH/fna0D8uD+39E4IECBAoCcgfvRuYiMCBAgQIHBpAfHj0lT5B4of+RNZkAABAgROWED8OOHjWZ0AAQIECIgf9+drQPy4P7f0TggQIECgJyB+9G5iIwIECBAgcGkB8ePSVPkHih/5E1mQAAECBE5YQPw44eNZnQABAgQIiB/352tA/Lg/t/ROCBAgQKAnIH70bmIjAgQIECBwaQHx49JU+QeKH/kTWZAAAQIETlhA/Djh41mdAAECBAg8++yz/+VwOPzPD33oQ4fPfOYzQE5Y4Mtf/vLhe9/73vEd/NeHDx/+rxN+K1YnQIAAAQI5AfEjdxILESBAgACByws8++yz/+lwOPzvd73rXYdvfOMbl3+iR+YEPv7xjx9++MMfHvf6zw8fPvw/uQUtRIAAAQIETlhA/Djh41mdAAECBAg888wz/+7Vr371/z0cDm/4yEc+cnj++ecPb3rTmw6vetWr4JyAwJ///OfDr3/968OLL754+O53v3vc+Ld/+tOf/v1Pf/rT/3cC61uRAAECBAicjID4cTKnsigBAgQIEHi6wDve8Y5/ePDgwT/zOX2BR48e/eNPfvKTfzn9d+IdECBAgACBloD40bqHbQgQIECAwN8l8Nxzz73r0aNH/+1wOPyHw+Hw1r9riCfdlcAvDofDvz148OB/vPzyy48/9+IPAQIECBAgsBUQP7aephEgQIAAAQIECBAgQIAAAQIxAfEjdhDrECBAgAABAgQIECBAgAABAlsB8WPraRoBAgQIECBAgAABAgQIECAQExA/YgexDgECBAgQIECAAAECBAgQILAVED+2nqYRIECAAAECBAgQIECAAAECMQHxI3YQ6xAgQIAAAQIECBAgQIAAAQJbAfFj62kaAQIECBAgQIAAAQIECBAgEBMQP2IHsQ4BAgQIECBAgAABAgQIECCwFRA/tp6mESBAgAABAgQIECBAgAABAjEB8SN2EOsQIECAAAECBAgQIECAAAECWwHxY+tpGgECBAgQIECAAAECBAgQIBATED9iB7EOAQIECBAgQIAAAQIECBAgsBUQP7aephEgQIAAAQIECBAgQIAAAQIxAfEjdhDrECBAgAABAgQIECBAgAABAlsB8WPraRoBAgQIECBAgAABAgQIECAQExA/YgexDgECBAgQIECAAAECBAgQILAVED+2nqYRIECAAAECBAgQIECAAAECMQHxI3YQ6xAgQIAAAQIECBAgQIAAAQJbAfFj62kaAQIECBAgQIAAAQIECBAgEBMQP2IHsQ4BAgQIECBAgAABAgQIECCwFRA/tp6mESBAgAABAgQIECBAgAABAjEB8SN2EOsQIECAAAECBAgQIECAAAECWwHxY+tpGgECBAgQIECAAAECBAgQIBATED9iB7EOAQIECBAgQIAAAQIECBAgsBUQP7aephEgQIAAAQIECBAgQIAAAQIxAfEjdhDrECBAgAABAgQIECBAgAABAlsB8WPraRoBAgQIECBAgAABAgQIECAQExA/YgexDgECBAgQIECAAAECBAgQILAVED+2nqYRIECAAAECBAgQIECAAAECMQHxI3YQ6xAgQIAAAQIECBAgQIAAAQJbAfFj62kaAQIECBAgQIAAAQIECBAgEBMQP2IHsQ4BAgQIECBAgAABAgQIECCwFRA/tp6mESBAgAABAgQIECBAgAABAjEB8SN2EOsQIECAAAECBAgQIECAAAECWwHxY+tpGgECBAgQIECAAAECBAgQIBATED9iB7EOAQIECBAgQIAAAQIECBAgsBUQP7aephEgQIAAAQIECBAgQIAAAQIxAfEjdhDrECBAgAABAgQIECBAgAABAlsB8WPraRoBAgQIECBAgAABAgQIECAQExA/YgexDgECBAgQIECAAAECBAgQILAVED+2nqYRIECAAAECBAgQIECAAAECMQHxI3YQ6xAgQIAAAQIECBAgQIAAAQJbAfFj62kaAQIECBAgQIAAAQIECBAgEBMQP2IHsQ4BAgQIECBAgAABAgQIECCwFRA/tp6mESBAgAABAgQIECBAgAABAjEB8SN2EOsQIECAAAECBAgQIECAAAECWwHxY+tpGgECBAgQIECAAAECBAgQIBATED9iB7EOAQIECBAgQIAAAQIECBAgsBUQP7aephEgQIAAAQIECBAgQIAAAQIxAfEjdhDrECBAgAABAgQIECBAgAABAlsB8WPraRoBAgQIECBAgAABAgQIECAQExA/YgexDgECBAgQIECAAAECBAgQILAVED+2nqYRIECAAAECBAgQIECAAAECMQHxI3YQ6xAgQIAAAQIECBAgQIAAAQJbAfFj62kaAQIECBAgQIAAAQIECBAgEBMQP2IHsQ4BAgQIECBAgAABAgQIECCwFRA/tp6mESBAgAABAgQIECBAgAABAjEB8SN2EOsQIECAAAECBAgQIECAAAECWwHxY+tpGgECBAgQIECAAAECBAgQIBATED9iB7EOAQIECBAgQIAAAQIECBAgsBUQP7aephEgQIAAAQIECBAgQIAAAQIxAfEjdhDrECBAgAABAgQIECBAgAABAlsB8WPraRoBAgQIECBAgAABAgQIECAQExA/YgexDgECBAgQIECAAAECBAgQILAVED+2nqYRIECAAAECBAgQIECAAAECMQHxI3YQ6xAgQIAAAQIECBAgQIAAAQJbAfFj62kaAQIECBAgQIAAAQIECBAgEBMQP2IHsQ4BAgQIECBAgAABAgQIECCwFRA/tp6mESBAgAABAgQIECBAgAABAjEB8SN2EOsQIECAAAECBAgQIECAAAECWwHxY+tpGgECBAgQIECAAAECBAgQIBATED9iB7EOAQIECBAgQIAAAQIECBAgsBUQP7aephEgQIAAAQIECBAgQIAAAQIxAfEjdhDrECBAgAABAgQIECBAgAABAlsB8WPraRoBAgQIECBAgAABAgQIECAQExA/YgexDgECBAgQIECAAAECBAgQILAVED+2nqYRIECAAAECBAgQIECAAAECMQHxI3YQ6xAgQIAAAQIECBAgQIAAAQJbAfFj62kaAQIECBAgQIAAAQIECBAgEBMQP2IHsQ4BAgQIECBAgAABAgQIECCwFRA/tp6mESBAgAABAgQIECBAgAABAjEB8SN2EOsQIECAAAECBAgQIECAAAECWwHxY+tpGgECBAgQIECAAAECBAgQIBATED9iB7EOAQIECBAgQIAAAQIECBAgsBUQP7aephEgQIAAAQIECBAgQIAAAQIxAfEjdhDrECBAgAABAgQIECBAgAABAlsB8WPraRoBAgQIECBAgAABAgQIECAQExA/YgexDgECBAgQIECAAAECBAgQILAVED+2nqYRIECAAAECBAgQIECAAAECMQHxI3YQ6xAgQIAAAQIECBAgQIAAAQJbAfFj62kaAQIECBAgQIAAAQIECBAgEBMQP2IHsQ4BAgQIECBAgAABAgQIECCwFRA/tp6mESBAgAABAgQIECBAgAABAjEB8SN2EOsQIECAAAECBAgQIECAAAECWwHxY+tpGgECBAgQIECAAAECBAgQIBATED9iB7EOAQIECBAgQIAAAQIECBAgsBUQP7aephEgQIAAAQIECBAgQIAAAQIxAfEjdhDrECBAgAABAgQIECBAgAABAlsB8WPraRoBAgQIECBAgAABAgQIECAQExA/YgexDgECBAgQIECAAAECBAgQILAVED+2nqYRIECAAAECBAgQIECAAAECMQHxI3YQ6xAgQIAAAQIECBAgQIAAAQJbAfFj62kaAQIECBAgQIAAAQIECBAgEBMQP2IHsQ4BAgQIECBAgAABAgQIECCwFRA/tp6mESBAgAABAgQIECBAgAABAjEB8SN2EOsQIECAAAECBAgQIECAAAECWwHxY+tpGgECBAgQIECAAAECBAgQIBATED9iB7EOAQIECBAgQIAAAQIECBAgsBUQP7aephEgQIAAAQIECBAgQIAAAQIxAfEjdhDrECBAgAABAgQIECBAgAABAlsB8WPraRoBAgQIECBAgAABAgQIECAQExA/YgexDgECBAgQIECAAAECBAgQILAVED+2nqYRIECAAAECBAgQIECAAAECMQHxI3YQ6xAgQIAAAQIECBAgQIAAAQJbAfFj62kaAQIECBAgQIAAAQIECBAgEBMQP2IHsQ4BAgQIECBAgAABAgQIECCwFRA/tp6mESBAgAABAgQIECBAgAABAjEB8SN2EOsQIECAAAECBAgQIECAAAECWwHxY+tpGgECBAgQIECAAAECBAgQIBATED9iB7EOAQIECBAgQIAAAQIECBAgsBUQP7aephEgQIAAAQIECBAgQIAAAQIxAfEjdhDrECBAgAABAgQIECBAgAABAlsB8WPraRoBAgQIECBAgAABAgQIECAQExA/YgexDgECBAgQIECAAAECBAgQILAVED+2nqYRIECAAAECBAgQIECAAAECMQHxI3YQ6xAgQIAAAQIECBAgQIAAAQJbAfFj62kaAQIECBAgQIAAAQIECBAgEBMQP2IHsQ4BAgQIECBAgAABAgQIECCwFRA/tp6mESBAgAABAgQIECBAgAABAjEB8SN2EOsQIECAAAECBAgQIECAAAECWwHxY+tpGgECBAgQIECAAAECBAgQIBATED9iB7EOAQIECBAgQIAAAQIECBAgsBUQP7aephEgQIAAAQIECBAgQIAAAQIxAfEjdhDrECBAgAABAgQIECBAgAABAlsB8WPraRoBAgQIECBAgAABAgQIECAQExA/YgexDgECBAgQIECAAAECBAgQILAVED+2nqYRIECAAAECBAgQIECAAAECMQHxI3YQ6xAgQIAAAQIECBAgQIAAAQJbAfFj62kaAQIECBAgQIAAAQIECBAgEBMQP2IHsQ4BAgQIECBAgAABAgQIECCwFRA/tp6mESBAgAABAgQIECBAgAABAjEB8SN2EOsQIECAAAECBAgQIECAAAECWwHxY+tpGgECBAgQIECAAAECBAgQIBATED9iB7EOAQIECBAgQIAAAQIECBAgsBUQP7aephEgQIAAAQIECBAgQIAAAQIxAfEjdhDrECBAgAABAgQIECBAgAABAlsB8WPraRoBAgQIECBAgAABAgQIECAQExA/YgexDgECBAgQIECAAAECBAgQILAVED+2nqYRIECAAAECBAgQIECAAAECMQHxI3YQ6xAgQIAAAQIECBAgQIAAAQJbAfFj62kaAQIECBAgQIAAAQIECBAgEBMQP2IHsQ4BAgQIECBAgAABAgQIECCwFRA/tp6mESBAgAABAgQIECBAgAABAjEB8SN2EOsQIECAAAECBAgQIECAAAECWwHxY+tpGgECBAgQIECAAAECBAgQIBATED9iB7EOAQIECBAgQIAAAQIECBAgsBUQP7aephEgQIAAAQIECBAgQIAAAQIxAfEjdhDrECBAgAABAgQIECBAgAABAlsB8WPraRoBAgQIECBAgAABAgQIECAQExA/YgexDgECBAgQIECAAAECBAgQILAVED+2nqYRIECAAAECBAgQIECAAAECMQHxI3YQ6xAgQIAAAQIECBAgQIAAAQJbAfFj62kaAQIECBAgQIAAAQIECBAgEBNLFyKPAAAgAElEQVQQP2IHsQ4BAgQIECBAgAABAgQIECCwFRA/tp6mESBAgAABAgQIECBAgAABAjEB8SN2EOsQIECAAAECBAgQIECAAAECWwHxY+tpGgECBAgQIECAAAECBAgQIBATED9iB7EOAQIECBAgQIAAAQIECBAgsBUQP7aephEgQIAAAQIECBAgQIAAAQIxAfEjdhDrECBAgAABAgQIECBAgAABAlsB8WPraRoBAgQIECBAgAABAgQIECAQExA/YgexDgECBAgQIECAAAECBAgQILAVED+2nqYRIECAAAECBAgQIECAAAECMQHxI3YQ6xAgQIAAAQIECBAgQIAAAQJbAfFj62kaAQIECBAgQIAAAQIECBAgEBMQP2IHsQ4BAgQIECBAgAABAgQIECCwFRA/tp6mESBAgAABAgQIECBAgAABAjEB8SN2EOsQIECAAAECBAgQIECAAAECWwHxY+tpGgECBAgQIECAAAECBAgQIBATED9iB7EOAQIECBAgQIAAAQIECBAgsBUQP7aephEgQIAAAQIECBAgQIAAAQIxAfEjdhDrECBAgAABAgQIECBAgAABAlsB8WPraRoBAgQIECBAgAABAgQIECAQExA/YgexDgECBAgQIECAAAECBAgQILAVED+2nqYRIECAAAECBAgQIECAAAECMQHxI3YQ6xAgQIAAAQIECBAgQIAAAQJbAfFj62kaAQIECBAgQIAAAQIECBAgEBMQP2IHsQ4BAgQIECBAgAABAgQIECCwFRA/tp6mESBAgAABAgQIECBAgAABAjEB8SN2EOsQIECAAAECBAgQIECAAAECWwHxY+tpGgECBAgQIECAAAECBAgQIBATED9iB7EOAQIECBAgQIAAAQIECBAgsBUQP7aephEgQIAAAQIECBAgQIAAAQIxAfEjdhDrECBAgAABAgQIECBAgAABAlsB8WPraRoBAgQIECBAgAABAgQIECAQExA/YgexDgECBAgQIECAAAECBAgQILAVED+2nqYRIECAAAECBAgQIECAAAECMQHxI3YQ6xAgQIAAAQIECBAgQIAAAQJbAfFj62kaAQIECBAgQIAAAQIECBAgEBMQP2IHsQ4BAgQIECBAgAABAgQIECCwFRA/tp6mESBAgAABAgQIECBAgAABAjEB8SN2EOsQIECAAAECBAgQIECAAAECWwHxY+tpGgECBAgQIECAAAECBAgQIBATED9iB7EOAQIECBAgQIAAAQIECBAgsBUQP7aephEgQIAAAQIECBAgQIAAAQIxAfEjdhDrECBAgAABAgQIECBAgAABAlsB8WPraRoBAgQIECBAgAABAgQIECAQExA/YgexDgECBAgQIECAAAECBAgQILAVED+2nqYRIECAAAECBAgQIECAAAECMQHxI3YQ6xAgQIAAAQIECBAgQIAAAQJbAfFj62kaAQIECBAgQIAAAQIECBAgEBMQP2IHsQ4BAgQIECBAgAABAgQIECCwFRA/tp6mESBAgAABAgQIECBAgAABAjEB8SN2EOsQIECAAAECBAgQIECAAAECWwHxY+tpGgECBAgQIECAAAECBAgQIBATED9iB7EOAQIECBAgQIAAAQIECBAgsBUQP7aephEgQIAAAQIECBAgQIAAAQIxAfEjdhDrECBAgAABAgQIECBAgAABAlsB8WPraRoBAgQIECBAgAABAgQIECAQExA/YgexDgECBAgQIECAAAECBAgQILAVED+2nqYRIECAAAECBAgQIECAAAECMQHxI3YQ6xAgQIAAAQIECBAgQIAAAQJbAfFj62kaAQIECBAgQIAAAQIECBAgEBMQP2IHsQ4BAgQIECBAgAABAgQIECCwFRA/tp6mESBAgAABAgQIECBAgAABAjEB8SN2EOsQIECAAAECBAgQIECAAAECWwHxY+tpGgECBAgQIECAAAECBAgQIBATED9iB7EOAQIECBAgQIAAAQIECBAgsBUQP7aephEgQIAAAQIECBAgQIAAAQIxAfEjdhDrECBAgAABAgQIECBAgAABAlsB8WPraRoBAgQIECBAgAABAgQIECAQExA/YgexDgECBAgQIECAAAECBAgQILAVED+2nqYRIECAAAECBAgQIECAAAECMQHxI3YQ6xAgQIAAAQIECBAgQIAAAQJbAfFj62kaAQIECBAgQIAAAQIECBAgEBMQP2IHsQ4BAgQIECBAgAABAgQIECCwFRA/tp6mESBAgAABAgQIECBAgAABAjEB8SN2EOsQIECAAAECBAgQIECAAAECWwHxY+tpGgECBAgQIECAAAECBAgQIBATED9iB7EOAQIECBAgQIAAAQIECBAgsBUQP7aephEgQIAAAQIECBAgQIAAAQIxAfEjdhDrECBAgAABAgQIECBAgAABAlsB8WPraRoBAgQIECBAgAABAgQIECAQExA/YgexDgECBAgQIECAAAECBAgQILAVED+2nqYRIECAAAECBAgQIECAAAECMQHxI3YQ6xAgQIAAAQIECBAgQIAAAQJbAfFj62kaAQIECBAgQIAAAQIECBAgEBMQP2IHsQ4BAgQIECBAgAABAgQIECCwFRA/tp6mESBAgAABAgQIECBAgAABAjEB8SN2EOsQIECAAAECBAgQIECAAAECWwHxY+tpGgECBAgQIECAAAECBAgQIBATED9iB7EOAQIECBAgQIAAAQIECBAgsBUQP7aephEgQIAAAQIECBAgQIAAAQIxAfEjdhDrECBAgAABAgQIECBAgAABAlsB8WPraRoBAgQIECBAgAABAgQIECAQExA/YgexDgECBAgQIECAAAECBAgQILAVED+2nqYRIECAAAECBAgQIECAAAECMQHxI3YQ6xAgQIAAAQIECBAgQIAAAQJbAfFj62kaAQIECBAgQIAAAQIECBAgEBMQP2IHsQ4BAgQIECBAgAABAgQIECCwFRA/tp6mESBAgAABAgQIECBAgAABAjEB8SN2EOsQIECAAAECBAgQIECAAAECWwHxY+tpGgECBAgQIECAAAECBAgQIBATED9iB7EOAQIECBAgQIAAAQIECBAgsBUQP7aephEgQIAAAQIECBAgQIAAAQIxAfEjdhDrECBAgAABAgQIECBAgAABAlsB8WPraRoBAgQIECBAgAABAgQIECAQExA/YgexDgECBAgQIECAAAECBAgQILAVED+2nqYRIECAAAECBAgQIECAAAECMQHxI3YQ6xAgQIAAAQIECBAgQIAAAQJbAfFj62kaAQIECBAgQIAAAQIECBAgEBMQP2IHsQ4BAgQIECBAgAABAgQIECCwFRA/tp6mESBAgAABAgQIECBAgAABAjEB8SN2EOsQIECAAAECBAgQIECAAAECWwHxY+tpGgECBAgQIECAAAECBAgQIBATED9iB7EOAQIECBAgQIAAAQIECBAgsBUQP7aephEgQIAAAQIECBAgQIAAAQIxAfEjdhDrECBAgAABAgQIECBAgAABAlsB8WPraRoBAgQIECBAgAABAgQIECAQExA/YgexDgECBAgQIECAAAECBAgQILAVED+2nqYRIECAAAECBAgQIECAAAECMQHxI3YQ6xAgQIAAAQIECBAgQIAAAQJbAfFj62kaAQIECBAgQIAAAQIECBAgEBMQP2IHsQ4BAgQIECBAgAABAgQIECCwFRA/tp6mESBAgAABAgQIECBAgAABAjEB8SN2EOsQIECAAAECBAgQIECAAAECWwHxY+tpGgECBAgQIECAAAECBAgQIBATED9iB7EOAQIECBAgQIAAAQIECBAgsBUQP7aephEgQIAAAQIECBAgQIAAAQIxAfEjdhDrECBAgAABAgQIECBAgAABAlsB8WPraRoBAgQIECBAgAABAgQIECAQExA/YgexDgECBAgQIECAAAECBAgQILAVED+2nqYRIECAAAECBAgQIECAAAECMQHxI3YQ6xAgQIAAAQIECBAgQIAAAQJbAfFj62kaAQIECBAgQIAAAQIECBAgEBMQP2IHsQ4BAgQIECBAgAABAgQIECCwFRA/tp6mESBAgAABAgQIECBAgAABAjEB8SN2EOsQIECAAAECBAgQIECAAAECWwHxY+tpGgECBAgQIECAAAECBAgQIBATED9iB7EOAQIECBAgQIAAAQIECBAgsBUQP7aephEgQIAAAQIECBAgQIAAAQIxAfEjdhDrECBAgAABAgQIECBAgAABAlsB8WPraRoBAgQIECBAgAABAgQIECAQExA/YgexDgECBAgQIECAAAECBAgQILAVED+2nqYRIECAAAECBAgQIECAAAECMQHxI3YQ6xAgQIAAAQIECBAgQIAAAQJbAfFj62kaAQIECBAgQIAAAQIECBAgEBMQP2IHsQ4BAgQIECBAgAABAgQIECCwFRA/tp6mESBAgAABAgQIECBAgAABAjEB8SN2EOsQIECAAAECBAgQIECAAAECWwHxY+tpGgECBAgQIECAAAECBAgQIBATED9iB7EOAQIECBAgQIAAAQIECBAgsBUQP7aephEgQIAAAQIECBAgQIAAAQIxAfEjdhDrECBAgAABAgQIECBAgAABAlsB8WPraRoBAgQIECBAgAABAgQIECAQExA/YgexDgECBAgQIECAAAECBAgQILAVED+2nqYRIECAAAECBAgQIECAAAECMQHxI3YQ6xAgQIAAAQIECBAgQIAAAQJbAfFj62kaAQIECBAgQIAAAQIECBAgEBMQP2IHsQ4BAgQIECBAgAABAgQIECCwFRA/tp6mESBAgAABAgQIECBAgAABAjEB8SN2EOsQIECAAAECBAgQIECAAAECWwHxY+tpGgECBAgQIECAAAECBAgQIBATED9iB7EOAQIECBAgQIAAAQIECBAgsBUQP7aephEgQIAAAQIECBAgQIAAAQIxAfEjdhDrECBAgAABAgQIECBAgAABAlsB8WPraRoBAgQIECBAgAABAgQIECAQExA/YgexDgECBAgQIECAAAECBAgQILAVED+2nqYRIECAAAECBAgQIECAAAECMQHxI3YQ6xAgQIAAAQIECBAgQIAAAQJbAfFj62kaAQIECBAgQIAAAQIECBAgEBMQP2IHsQ4BAgQIECBAgAABAgQIECCwFRA/tp6mESBAgAABAgQIECBAgAABAjEB8SN2EOsQIECAAAECBAgQIECAAAECWwHxY+tpGgECBAgQIECAAAECBAgQIBATED9iB7EOAQIECBAgQIAAAQIECBAgsBUQP7aephEgQIAAAQIECBAgQIAAAQIxAfEjdhDrECBAgAABAgQIECBAgAABAlsB8WPraRoBAgQIECBAgAABAgQIECAQExA/YgexDgECBAgQIECAAAECBAgQILAVED+2nqYRIECAAAECBAgQIECAAAECMQHxI3YQ6xAgQIAAAQIECBAgQIAAAQJbAfFj62kaAQIECBAgQIAAAQIECBAgEBMQP2IHsQ4BAgQIECBAgAABAgQIECCwFRA/tp6mESBAgAABAgQIECBAgAABAjEB8SN2EOsQIECAAAECBAgQIECAAAECWwHxY+tpGgECBAgQIECAAAECBAgQIBATED9iB7EOAQIECBAgQIAAAQIECBAgsBUQP7aephEgQIAAAQIECBAgQIAAAQIxAfEjdhDrECBAgAABAgQIECBAgAABAlsB8WPraRoBAgQIECBAgAABAgQIECAQExA/YgexDgECBAgQIECAAAECBAgQILAVED+2nqYRIECAAAECBAgQIECAAAECMQHxI3YQ6xAgQIAAAQIECBAgQIAAAQJbAfFj62kaAQIECBAgQIAAAQIECBAgEBMQP2IHsQ4BAgQIECBAgAABAgQIECCwFRA/tp6mESBAgAABAgQIECBAgAABAjEB8SN2EOsQIECAAAECBAgQIECAAAECWwHxY+tpGgECBAgQIECAAAECBAgQIBATED9iB7EOAQIECBAgQIAAAQIECBAgsBUQP7aephEgQIAAAQIECBAgQIAAAQIxAfEjdhDrECBAgAABAgQIECBAgAABAlsB8WPraRoBAgQIECBAgAABAgQIECAQExA/YgexDgECBAgQIECAAAECBAgQILAVED+2nqYRIECAAAECBAgQIECAAAECMQHxI3YQ6xAgQIAAAQIECBAgQIAAAQJbAfFj62kaAQIECBAgQIAAAQIECBAgEBMQP2IHsQ4BAgQIECBAgAABAgQIECCwFRA/tp6mESBAgAABAgQIECBAgAABAjEB8SN2EOsQIECAAAECBAgQIECAAAECWwHxY+tpGgECBAgQIECAAAECBAgQIBATED9iB7EOAQIECBAgQIAAAQIECBAgsBUQP7aephEgQIAAAQIECBAgQIAAAQIxAfEjdhDrECBAgAABAgQIECBAgAABAlsB8WPraRoBAgQIECBAgAABAgQIECAQExA/YgexDgECBAgQIECAAAECBAgQILAVED+2nqYRIECAAAECBAgQIECAAAECMQHxI3YQ6xAgQIAAAQIECBAgQIAAAQJbAfFj62kaAQIECBAgQIAAAQIECBAgEBMQP2IHsQ4BAgQIECBAgAABAgQIECCwFRA/tp6mESBAgAABAgQIECBAgAABAjEB8SN2EOsQIECAAAECBAgQIECAAAECWwHxY+tpGgECBAgQIECAAAECBAgQIBATED9iB7EOAQIECBAgQIAAAQIECBAgsBUQP7aephEgQIAAAQIECBAgQIAAAQIxAfEjdhDrECBAgAABAgQIECBAgAABAlsB8WPraRoBAgQIECBAgAABAgQIECAQExA/YgexDgECBAgQIECAAAECBAgQILAVED+2nqYRIECAAAECBAgQIECAAAECMQHxI3YQ6xAgQIAAAQIECBAgQIAAAQJbAfFj62kaAQIECBAgQIAAAQIECBAgEBMQP2IHsQ4BAgQIECBAgAABAgQIECCwFRA/tp6mESBAgAABAgQIECBAgAABAjEB8SN2EOsQIECAAAECBAgQIECAAAECWwHxY+tpGgECBAgQIECAAAECBAgQIBATED9iB7EOAQIECBAgQIAAAQIECBAgsBUQP7aephEgQIAAAQIECBAgQIAAAQIxAfEjdhDrECBAgAABAgQIECBAgAABAlsB8WPraRoBAgQIECBAgAABAgQIECAQExA/YgexDgECBAgQIECAAAECBAgQILAVED+2nqYRIECAAAECBAgQIECAAAECMQHxI3YQ6xAgQIAAAQIECBAgQIAAAQJbAfFj62kaAQIECBAgQIAAAQIECBAgEBMQP2IHsQ4BAgQIECBAgAABAgQIECCwFRA/tp6mESBAgAABAgQIECBAgAABAjEB8SN2EOsQIECAAAECBAgQIECAAAECWwHxY+tpGgECBAgQIECAAAECBAgQIBATED9iB7EOAQIECBAgQIAAAQIECBAgsBUQP7aephEgQIAAAQIECBAgQIAAAQIxAfEjdhDrECBAgAABAgQIECBAgAABAlsB8WPraRoBAgQIECBAgAABAgQIECAQExA/YgexDgECBAgQIECAAAECBAgQILAVED+2nqYRIECAAAECBAgQIECAAAECMQHxI3YQ6xAgQIAAAQIECBAgQIAAAQJbAfFj62kaAQIECBAgQIAAAQIECBAgEBMQP2IHsQ4BAgQIECBAgAABAgQIECCwFRA/tp6mESBAgAABAgQIECBAgAABAjEB8SN2EOsQIECAAAECBAgQIECAAAECWwHxY+tpGgECBAgQIECAAAECBAgQIBATED9iB7EOAQIECBAgQIAAAQIECBAgsBUQP7aephEgQIAAAQIECBAgQIAAAQIxAfEjdhDrECBAgAABAgQIECBAgAABAlsB8WPraRoBAgQIECBAgAABAgQIECAQExA/YgexDgECBAgQIECAAAECBAgQILAVED+2nqYRIECAAAECBAgQIECAAAECMQHxI3YQ6xAgQIAAAQIECBAgQIAAAQJbAfFj62kaAQIECBAgQIAAAQIECBAgEBMQP2IHsQ4BAgQIECBAgAABAgQIECCwFRA/tp6mESBAgAABAgQIECBAgAABAjEB8SN2EOsQIECAAAECBAgQIECAAAECWwHxY+tpGgECBAgQIECAAAECBAgQIBATED9iB7EOAQIECBAgQIAAAQIECBAgsBUQP7aephEgQIAAAQIECBAgQIAAAQIxAfEjdhDrECBAgAABAgQIECBAgAABAlsB8WPraRoBAgQIECBAgAABAgQIECAQExA/YgexDgECBAgQIECAAAECBAgQILAVED+2nqYRIECAAAECBAgQIECAAAECMQHxI3YQ6xAgQIAAAQIECBAgQIAAAQJbAfFj62kaAQIECBAgQIAAAQIECBAgEBMQP2IHsQ4BAgQIECBAgAABAgQIECCwFRA/tp6mESBAgAABAgQIECBAgAABAjEB8SN2EOsQIECAAAECBAgQIECAAAECWwHxY+tpGgECBAgQIECAAAECBAgQIBATED9iB7EOAQIECBAgQIAAAQIECBAgsBUQP7aephEgQIAAAQIECBAgQIAAAQIxAfEjdhDrECBAgAABAgQIECBAgAABAlsB8WPraRoBAgQIECBAgAABAgQIECAQExA/YgexDgECBAgQIECAAAECBAgQILAVED+2nqYRIECAAAECBAgQIECAAAECMQHxI3YQ6xAgQIAAAQIECBAgQIAAAQJbAfFj62kaAQIECBAgQIAAAQIECBAgEBMQP2IHsQ4BAgQIECBAgAABAgQIECCwFRA/tp6mESBAgAABAgQIECBAgAABAjEB8SN2EOsQIECAAAECBAgQIECAAAECWwHxY+tpGgECBAgQIECAAAECBAgQIBATED9iB7EOAQIECBAgQIAAAQIECBAgsBUQP7aephEgQIAAAQIECBAgQIAAAQIxAfEjdhDrECBAgAABAgQIECBAgAABAlsB8WPraRoBAgQIECBAgAABAgQIECAQExA/YgexDgECBAgQIECAAAECBAgQILAVED+2nqYRIECAAAECBAgQIECAAAECMQHxI3YQ6xAgQIAAAQIECBAgQIAAAQJbAfFj62kaAQIECBAgQIAAAQIECBAgEBMQP2IHsQ4BAgQIECBAgAABAgQIECCwFRA/tp6mESBAgAABAgQIECBAgAABAjEB8SN2EOsQIECAAAECBAgQIECAAAECWwHxY+tpGgECBAgQIECAAAECBAgQIBATED9iB7EOAQIECBAgQIAAAQIECBAgsBUQP7aephEgQIAAAQIECBAgQIAAAQIxAfEjdhDrECBAgAABAgQIECBAgAABAlsB8WPraRoBAgQIECBAgAABAgQIECAQExA/YgexDgECBAgQIECAAAECBAgQILAVED+2nqYRIECAAAECBAgQIECAAAECMQHxI3YQ6xAgQIAAAQIECBAgQIAAAQJbAfFj62kaAQIECBAgQIAAAQIECBAgEBMQP2IHsQ4BAgQIECBAgAABAgQIECCwFRA/tp6mESBAgAABAgQIECBAgAABAjEB8SN2EOsQIECAAAECBAgQIECAAAECWwHxY+tpGgECBAgQIECAAAECBAgQIBATED9iB7EOAQIECBAgQIAAAQIECBAgsBUQP7aephEgQIAAAQIECBAgQIAAAQIxAfEjdhDrECBAgAABAgQIECBAgAABAlsB8WPraRoBAgQIECBAgAABAgQIECAQExA/YgexDgECBAgQIECAAAECBAgQILAVED+2nqYRIECAAAECBAgQIECAAAECMQHxI3YQ6xAgQIAAAQIECBAgQIAAAQJbAfFj62kaAQIECBAgQIAAAQIECBAgEBMQP2IHsQ4BAgQIECBAgAABAgQIECCwFRA/tp6mESBAgAABAgQIECBAgAABAjEB8SN2EOsQIECAAAECBAgQIECAAAECWwHxY+tpGgECBAgQIECAAAECBAgQIBATED9iB7EOAQIECBAgQIAAAQIECBAgsBUQP7aephEgQIAAAQIECBAgQIAAAQIxAfEjdhDrECBAgAABAgQIECBAgAABAlsB8WPraRoBAgQIECBAgAABAgQIECAQExA/YgexDgECBAgQIECAAAECBAgQILAVED+2nqYRIECAAAECBAgQIECAAAECMQHxI3YQ6xAgQIAAAQIECBAgQIAAAQJbAfFj62kaAQIECBAgQIAAAQIECBAgEBMQP2IHsQ4BAgQIECBAgAABAgQIECCwFRA/tp6mESBAgAABAgQIECBAgAABAjEB8SN2EOsQIECAAAECBAgQIECAAAECWwHxY+tpGgECBAgQIECAAAECBAgQIBATED9iB7EOAQIECBAgQIAAAQIECBAgsBUQP7aephEgQIAAAQIECBAgQIAAAQIxAfEjdhDrECBAgAABAgQIECBAgAABAlsB8WPraRoBAgQIECBAgAABAgQIECAQExA/YgexDgECBAgQIECAAAECBAgQILAVED+2nqYRIECAAAECBAgQIECAAAECMQHxI3YQ6xAgQIAAAQIECBAgQIAAAQJbAfFj62kaAQIECBAgQIAAAQIECBAgEBMQP2IHsQ4BAgQIECBAgAABAgQIECCwFRA/tp6mESBAgAABAgQIECBAgAABAjEB8SN2EOsQIECAAAECBAgQIECAAAECWwHxY+tpGgECBAgQIECAAAECBAgQIBATED9iB7EOAQIECBAgQIAAAQIECBAgsBUQP7aephEgQIAAAQIECBAgQIAAAQIxAfEjdhDrECBAgAABAgQIECBAgAABAlsB8WPraRoBAgQIECBAgAABAgQIECAQExA/YgexDgECBAgQIECAAAECBAgQILAVED+2nqYRIECAAAECBAgQIECAAAECMQHxI3YQ6xAgQIAAAQIECBAgQIAAAQJbAfFj62kaAQIECBAgQIAAAQIECBAgEBMQPzt34SIAACAASURBVGIHsQ4BAgQIECBAgAABAgQIECCwFRA/tp6mESBAgAABAgQIECBAgAABAjEB8SN2EOsQIECAAAECBAgQIECAAAECWwHxY+tpGgECBAgQIECAAAECBAgQIBATED9iB7EOAQIECBAgQIAAAQIECBAgsBUQP7aephEgQIAAAQIECBAgQIAAAQIxAfEjdhDrECBAgAABAgQIECBAgAABAlsB8WPraRoBAgQIECBAgAABAgQIECAQExA/YgexDgECBAgQIECAAAECBAgQILAVED+2nqYRIECAAAECBAgQIECAAAECMQHxI3YQ6xAgQIAAAQIECBAgQIAAAQJbAfFj62kaAQIECBAgQIAAAQIECBAgEBMQP2IHsQ4BAgQIECBAgAABAgQIECCwFRA/tp6mESBAgAABAgQIECBAgAABAjEB8SN2EOsQIECAAAECBAgQIECAAAECWwHxY+tpGgECBAgQIECAAAECBAgQIBATED9iB7EOAQIECBAgQIAAAQIECBAgsBUQP7aephEgQIAAAQIECBAgQIAAAQIxAfEjdhDrECBAgAABAgQIECBAgAABAlsB8WPraRoBAgQIECBAgAABAgQIECAQExA/YgexDgECBAgQIECAAAECBAgQILAVED+2nqYRIECAAAECBAgQIECAAAECMQHxI3YQ6xAgQIAAAQIECBAgQIAAAQJbAfFj62kaAQIECBAgQIAAAQIECBAgEBMQP2IHsQ4BAgQIECBAgAABAgQIECCwFRA/tp6mESBAgAABAgQIECBAgAABAjEB8SN2EOsQIECAAAECBAgQIECAAAECWwHxY+tpGgECBAgQIECAAAECBAgQIBATED9iB7EOAQIECBAgQIAAAQIECBAgsBUQP7aephEgQIAAAQIECBAgQIAAAQIxAfEjdhDrECBAgAABAgQIECBAgAABAlsB8WPraRoBAgQIECBAgAABAgQIECAQExA/YgexDgECBAgQIECAAAECBAgQILAVED+2nqYRIECAAAECBAgQIECAAAECMQHxI3YQ6xAgQIAAAQIECBAgQIAAAQJbAfFj62kaAQIECBAgQIAAAQIECBAgEBMQP2IHsQ4BAgQIECBAgAABAgQIECCwFRA/tp6mESBAgAABAgQIECBAgAABAjEB8SN2EOsQIECAAAECBAgQIECAAAECWwHxY+tpGgECBAgQIECAAAECBAgQIBATED9iB7EOAQIECBAgQIAAAQIECBAgsBUQP7aephEgQIAAAQIECBAgQIAAAQIxAfEjdhDrECBAgAABAgQIECBAgAABAlsB8WPraRoBAgQIECBAgAABAgQIECAQExA/YgexDgECBAgQIECAAAECBAgQILAVED+2nqYRIECAAAECBAgQIECAAAECMQHxI3YQ6xAgQIAAAQIECBAgQIAAAQJbAfFj62kaAQIECBAgQIAAAQIECBAgEBMQP2IHsQ4BAgQIECBAgAABAgQIECCwFRA/tp6mESBAgAABAgQIECBAgAABAjEB8SN2EOsQIECAAAECBAgQIECAAAECWwHxY+tpGgECBAgQIECAAAECBAgQIBATED9iB7EOAQIECBAgQIAAAQIECBAgsBUQP7aephEgQIAAAQIECBAgQIAAAQIxAfEjdhDrECBAgAABAgQIECBAgAABAlsB8WPraRoBAgQIECBAgAABAgQIECAQExA/YgexDgECBAgQIECAAAECBAgQILAVED+2nqYRIECAAAECBAgQIECAAAECMQHxI3YQ6xAgQIAAAQIECBAgQIAAAQJbAfFj62kaAQIECBAgQIAAAQIECBAgEBMQP2IHsQ4BAgQIECBAgAABAgQIECCwFRA/tp6mESBAgAABAgQIECBAgAABAjEB8SN2EOsQIECAAAECBAgQIECAAAECWwHxY+tpGgECBAgQIECAAAECBAgQIBATED9iB7EOAQIECBAgQIAAAQIECBAgsBUQP7aephEgQIAAAQIECBAgQIAAAQIxAfEjdhDrECBAgAABAgQIECBAgAABAlsB8WPraRoBAgQIECBAgAABAgQIECAQExA/YgexDgECBAgQIECAAAECBAgQILAVED+2nqYRIECAAAECBAgQIECAAAECMQHxI3YQ6xAgQIAAAQIECBAgQIAAAQJbAfFj62kaAQIECBAgQIAAAQIECBAgEBMQP2IHsQ4BAgQIECBAgAABAgQIECCwFRA/tp6mESBAgAABAgQIECBAgAABAjEB8SN2EOsQIECAAAECBAgQIECAAAECWwHxY+tpGgECBAgQIECAAAECBAgQIBATED9iB7EOAQIECBAgQIAAAQIECBAgsBUQP7aephEgQIAAAQIECBAgQIAAAQIxAfEjdhDrECBAgAABAgQIECBAgAABAlsB8WPraRoBAgQIECBAgAABAgQIECAQExA/YgexDgECBAgQIECAAAECBAgQILAVED+2nqYRIECAAAECBAgQIECAAAECMQHxI3YQ6xAgQIAAAQIECBAgQIAAAQJbAfFj62kaAQIECBAgQIAAAQIECBAgEBMQP2IHsQ4BAgQIECBAgAABAgQIECCwFRA/tp6mESBAgAABAgQIECBAgAABAjEB8SN2EOsQIECAAAECBAgQIECAAAECWwHxY+tpGgECBAgQIECAAAECBAgQIBATED9iB7EOAQIECBAgQIAAAQIECBAgsBUQP7aephEgQIAAAQIECBAgQIAAAQIxAfEjdhDrECBAgAABAgQIECBAgAABAlsB8WPraRoBAgQIECBAgAABAgQIECAQExA/YgexDgECBAgQIECAAAECBAgQILAVED+2nqYRIECAAAECBAgQIECAAAECMQHxI3YQ6xAgQIAAAQIECBAgQIAAAQJbAfFj62kaAQIECBAgQIAAAQIECBAgEBMQP2IHsQ4BAgQIECBAgAABAgQIECCwFRA/tp6mESBAgAABAgQIECBAgAABAjEB8SN2EOsQIECAAAECBAgQIECAAAECWwHxY+tpGgECBAgQIECAAAECBAgQIBATED9iB7EOAQIECBAgQIAAAQIECBAgsBUQP7aephEgQIAAAQIECBAgQIAAAQIxAfEjdhDrECBAgAABAgQIECBAgAABAlsB8WPraRoBAgQIECBAgAABAgQIECAQExA/YgexDgECBAgQIECAAAECBAgQILAVED+2nqYRIECAAAECBAgQIECAAAECMQHxI3YQ6xAgQIAAAQIECBAgQIAAAQJbAfFj62kaAQIECBAgQIAAAQIECBAgEBMQP2IHsQ4BAgQIECBAgAABAgQIECCwFRA/tp6mESBAgAABAgQIECBAgAABAjEB8SN2EOsQIECAAAECBAgQIECAAAECWwHxY+tpGgECBAgQIECAAAECBAgQIBATED9iB7EOAQIECBAgQIAAAQIECBAgsBUQP7aephEgQIAAAQIECBAgQIAAAQIxAfEjdhDrECBAgAABAgQIECBAgAABAlsB8WPraRoBAgQIECBAgAABAgQIECAQExA/YgexDgECBAgQIECAAAECBAgQILAVED+2nqYRIECAAAECBAgQIECAAAECMQHxI3YQ6xAgQIAAAQIECBAgQIAAAQJbAfFj62kaAQIECBAgQIAAAQIECBAgEBMQP2IHsQ4BAgQIECBAgAABAgQIECCwFRA/tp6mESBAgAABAgQIECBAgAABAjEB8SN2EOsQIECAAAECBAgQIECAAAECWwHxY+tpGgECBAgQIECAAAECBAgQIBATED9iB7EOAQIECBAgQIAAAQIECBAgsBUQP7aephEgQIAAAQIECBAgQIAAAQIxAfEjdhDrECBAgAABAgQIECBAgAABAlsB8WPraRoBAgQIECBAgAABAgQIECAQExA/YgexDgECBAgQIECAAAECBAgQILAVED+2nqYRIECAAAECBAgQIECAAAECMQHxI3YQ6xAgQIAAAQIECBAgQIAAAQJbAfFj62kaAQIECBAgQIAAAQIECBAgEBMQP2IHsQ4BAgQIECBAgAABAgQIECCwFRA/tp6mESBAgAABAgQIECBAgAABAjEB8SN2EOsQIECAAAECBAgQIECAAAECWwHxY+tpGgECBAgQIECAAAECBAgQIBATED9iB7EOAQIECBAgQIAAAQIECBAgsBUQP7aephEgQIAAAQIECBAgQIAAAQIxAfEjdhDrECBAgAABAgQIECBAgAABAlsB8WPraRoBAgQIECBAgAABAgQIECAQExA/YgexDgECBAgQIECAAAECBAgQILAVED+2nqYRIECAAAECBAgQIECAAAECMQHxI3YQ6xAgQIAAAQIECBAgQIAAAQJbAfFj62kaAQIECBAgQIAAAQIECBAgEBMQP2IHsQ4BAgQIECBAgAABAgQIECCwFRA/tp6mESBAgAABAgQIECBAgAABAjEB8SN2EOsQIECAAAECBAgQIECAAAECWwHxY+tpGgECBAgQIECAAAECBAgQIBATED9iB7EOAQIECBAgQIAAAQIECBAgsBUQP7aephEgQIAAAQIECBAgQIAAAQIxAfEjdhDrECBAgAABAgQIECBAgAABAlsB8WPraRoBAgQIECBAgAABAgQIECAQExA/YgexDgECBAgQIECAAAECBAgQILAVED+2nqYRIECAAAECBAgQIECAAAECMQHxI3YQ6xAgQIAAAQIECBAgQIAAAQJbAfFj62kaAQIECBAgQIAAAQIECBAgEBMQP2IHsQ4BAgQIECBAgAABAgQIECCwFRA/tp6mESBAgAABAgQIECBAgAABAjEB8SN2EOsQIECAAAECBAgQIECAAAECWwHxY+tpGgECBAgQIECAAAECBAgQIBATED9iB7EOAQIECBAgQIAAAQIECBAgsBUQP7aephEgQIAAAQIECBAgQIAAAQIxAfEjdhDrECBAgAABAgQIECBAgAABAlsB8WPraRoBAgQIECBAgAABAgQIECAQExA/YgexDgECBAgQIECAAAECBAgQILAVED+2nqYRIECAAAECBAgQIECAAAECMQHxI3YQ6xAgQIAAAQIECBAgQIAAAQJbAfFj62kaAQIECBAgQIAAAQIECBAgEBMQP2IHsQ4BAgQIECBAgAABAgQIECCwFRA/tp6mESBAgAABAgQIECBAgAABAjEB8SN2EOsQIECAAAECBAgQIECAAAECWwHxY+tpGgECBAgQIECAAAECBAgQIBATED9iB7EOAQIECBAgQIAAAQIECBAgsBUQP7aephEgQIAAAQIECBAgQIAAAQIxAfEjdhDrECBAgAABAgQIECBAgAABAlsB8WPraRoBAgQIECBAgAABAgQIECAQExA/YgexDgECBAgQIECAAAECBAgQILAVED+2nqYRIECAAAECBAgQIECAAAECMQHxI3YQ6xAgQIAAAQIECBAgQIAAAQJbAfFj62kaAQIECBAgQIAAAQIECBAgEBMQP2IHsQ4BAgQIECBAgAABAgQIECCwFRA/tp6mESBAgAABAgQIECBAgAABAjEB8SN2EOsQIECAAAECBAgQIECAAAECWwHxY+tpGgECBAgQIECAAAECBAgQIBATED9iB7EOAQIECBAgQIAAAQIECBAgsBUQP7aephEgQIAAAQIECBAgQIAAAQIxAfEjdhDrECBAgAABAgQIECBAgAABAlsB8WPraRoBAgQIECBAgAABAgQIECAQExA/YgexDgECBAgQIECAAAECBAgQILAVED+2nqYRIECAAAECBAgQIECAAAECMQHxI3YQ6xAgQIAAAQIECBAgQIAAAQJbAfFj62kaAQIECBAgQIAAAQIECBAgEBMQP2IHsQ4BAgQIECBAgAABAgQIECCwFRA/tp6mESBAgAABAgQIECBAgAABAjEB8SN2EOsQIECAAAECBAgQIECAAAECWwHxY+tpGgECBAgQIECAAAECBAgQIBATED9iB7EOAQIECBAgQIAAAQIECBAgsBUQP7aephEgQIAAAQIECBAgQIAAAQIxAfEjdhDrECBAgAABAgQIECBAgAABAlsB8WPraRoBAgQIECBAgAABAgQIECAQExA/YgexDgECBAgQIECAAAECBAgQILAVED+2nqYRIECAAAECBAgQIECAAAECMQHxI3YQ6xAgQIAAAQIECBAgQIAAAQJbAfFj62kaAQIECBAgQIAAAQIECBAgEBMQP2IHsQ4BAgQIECBAgAABAgQIECCwFRA/tp6mESBAgAABAgQIECBAgAABAjEB8SN2EOsQIECAAAECBAgQIECAAAECWwHxY+tpGgECBAgQIECAAAECBAgQIBATED9iB7EOAQIECBAgQIAAAQIECBAgsBUQP7aephEgQIAAAQIECBAgQIAAAQIxAfEjdhDrECBAgAABAgQIECBAgAABAlsB8WPraRoBAgQIECBAgAABAgQIECAQExA/YgexDgECBAgQIECAAAECBAgQILAVED+2nqYRIECAAAECBAgQIECAAAECMQHxI3YQ6xAgQIAAAQIECBAgQIAAAQJbAfFj62kaAQIECBAgQIAAAQIECBAgEBMQP2IHsQ4BAgQIECBAgAABAgQIECCwFRA/tp6mESBAgAABAgQIECBAgAABAjEB8SN2EOsQIECAAAECBAgQIECAAAECWwHxY+tpGgECBAgQIECAAAECBAgQIBATED9iB7EOAQIECBAgQIAAAQIECBAgsBUQP7aephEgQIAAAQIECBAgQIAAAQIxAfEjdhDrECBAgAABAgQIECBAgAABAlsB8WPraRoBAgQIECBAgAABAgQIECAQExA/YgexDgECBAgQIECAAAECBAgQILAVED+2nqYRIECAAAECBAgQIECAAAECMQHxI3YQ6xAgQIAAAQIECBAgQIAAAQJbAfFj62kaAQIECBAgQIAAAQIECBAgEBMQP2IHsQ4BAgQIECBAgAABAgQIECCwFRA/tp6mESBAgAABAgQIECBAgAABAjEB8SN2EOsQIECAAAECBAgQIECAAAECWwHxY+tpGgECBAgQIECAAAECBAgQIBATED9iB7EOAQIECBAgQIAAAQIECBAgsBUQP7aephEgQIAAAQIECBAgQIAAAQIxAfEjdhDrECBAgAABAgQIECBAgAABAlsB8WPraRoBAgQIECBAgAABAgQIECAQExA/YgexDgECBAgQIECAAAECBAgQILAVED+2nqYRIECAAAECBAgQIECAAAECMQHxI3YQ6xAgQIAAAQIECBAgQIAAAQJbAfFj62kaAQIECBAgQIAAAQIECBAgEBMQP2IHsQ4BAgQIECBAgAABAgQIECCwFRA/tp6mESBAgAABAgQIECBAgAABAjEB8SN2EOsQIECAAAECBAgQIECAAAECWwHxY+tpGgECBAgQIECAAAECBAgQIBATED9iB7EOAQIECBAgQIAAAQIECBAgsBUQP7aephEgQIAAAQIECBAgQIAAAQIxAfEjdhDrECBAgAABAgQIECBAgAABAlsB8WPraRoBAgQIECBAgAABAgQIECAQExA/YgexDgECBAgQIECAAAECBAgQILAVED+2nqYRIECAAAECBAgQIECAAAECMQHxI3YQ6xAgQIAAAQIECBAgQIAAAQJbAfFj62kaAQIECBAgQIAAAQIECBAgEBMQP2IHsQ4BAgQIECBAgAABAgQIECCwFRA/tp6mESBAgAABAgQIECBAgAABAjEB8SN2EOsQIECAAAECBAgQIECAAAECWwHxY+tpGgECBAgQIECAAAECBAgQIBATED9iB7EOAQIECBAgQIAAAQIECBAgsBUQP7aephEgQIAAAQIECBAgQIAAAQIxAfEjdhDrECBAgAABAgQIECBAgAABAlsB8WPraRoBAgQIECBAgAABAgQIECAQExA/YgexDgECBAgQIECAAAECBAgQILAVED+2nqYRIECAAAECBAgQIECAAAECMQHxI3YQ6xAgQIAAAQIECBAgQIAAAQJbAfFj62kaAQIECBAgQIAAAQIECBAgEBMQP2IHsQ4BAgQIECBAgAABAgQIECCwFRA/tp6mESBAgAABAgQIECBAgAABAjEB8SN2EOsQIECAAAECBAgQIECAAAECWwHxY+tpGgECBAgQIECAAAECBAgQIBATED9iB7EOAQIECBAgQIAAAQIECBAgsBUQP7aephEgQIAAAQIECBAgQIAAAQIxAfEjdhDrECBAgAABAgQIECBAgAABAlsB8WPraRoBAgQIECBAgAABAgQIECAQExA/YgexDgECBAgQIECAAAECBAgQILAVED+2nqYRIECAAAECBAgQIECAAAECMQHxI3YQ6xAgQIAAAQIECBAgQIAAAQJbAfFj62kaAQIECBAgQIAAAQIECBAgEBMQP2IHsQ4BAgQIECBAgAABAgQIECCwFRA/tp6mESBAgAABAgQIECBAgAABAjEB8SN2EOsQIECAAAECBAgQIECAAAECWwHxY+tpGgECBAgQIECAAAECBAgQIBATED9iB7EOAQIECBAgQIAAAQIECBAgsBUQP7aephEgQIAAAQIECBAgQIAAAQIxAfEjdhDrECBAgAABAgQIECBAgAABAlsB8WPraRoBAgQIECBAgAABAgQIECAQExA/YgexDgECBAgQIECAAAECBAgQILAVED+2nqYRIECAAAECBAgQIECAAAECMQHxI3YQ6xAgQIAAAQIECBAgQIAAAQJbAfFj62kaAQIECBAgQIAAAQIECBAgEBMQP2IHsQ4BAgQIECBAgAABAgQIECCwFRA/tp7/v507xm1qC8IAfLwEsgYkF+5sgaBI6Q2wi3QpYQVQpssu2EBKFyCQb+ciEmtwluAnP1E96XFF4j/njvP1+Mzcb6bh1zlxGgECBAgQIECAAAECBAgQIDAxAeHHxAaiHQIECBAgQIAAAQIECBAgQOC0AsKP03o6jQABAgQIECBAgAABAgQIEJiYgPBjYgPRDgECBAgQIECAAAECBAgQIHBaAeHHaT2dRoAAAQIECBAgQIAAAQIECExMYLLhx2q1+ng4HD601l631l5NzO3c23lorf2azWZft9vtl3P/WN9HgAABAgQIECBAgAABAuctMMnwY7lcfmutvTtv+jJf930YhvdlutUoAQIECBAgQIAAAQIECBD4j8Dkwo/fNz4+z+fzdnV11RaLRbu4uDC4ZxTY7/dtt9u129vbdn9/32az2Sc3QJ5xAEoRIECAAAECBAgQIECAwEkFJhd+LJfLH621Nzc3N+3y8vKkH+uwvxPYbDbt+vr6+KOfwzC8/btf+9cECBAgQIAAAQIECBAgQGAaAlMMP/bHv/Fxd3fnxkfnHTneAFmv18cuHoZhcP2m8zyUJ0CAAAECBAgQIECAAIHHCUwx/DgcP2W73T7ui/zqpAKr1erf84ZhmNyunPRDHUaAAAECBAgQIECAAAECZyswuf/QLpdL4ceE1k34MaFhaIUAAQIECBAgQIAAAQIEHiUg/HgU28v5kfDj5czalxIgQIAAAQIECBAgQOBcBYQf5zrZE32X8ONEkI4hQIAAAQIECBAgQIAAgW4Cwo9u9DUKCz9qzEmXBAgQIECAAAECBAgQIPD/AsIP2/FHAeGHBSFAgAABAgQIECBAgACB6gLCj+oTDPcv/AgDO54AAQIECBAgQIAAAQIE4gLCjzhx7QLCj9rz0z0BAgQIECBAgAABAgQItCb8sAV/FBB+WBACBAgQIECAAAECBAgQqC4g/Kg+wXD/wo8wsOMJECBAgAABAgQIECBAIC4g/IgT1y4g/Kg9P90TIECAAAECBAgQIECAgGcvdmBEQPhhRQgQIECAAAECBAgQIECguoCbH9UnGO5f+BEGdjwBAgQIECBAgAABAgQIxAWEH3Hi2gWEH7Xnp3sCBAgQIECAAAECBAgQ8OzFDowICD+sCAECBAgQIECAAAECBAhUF3Dzo/oEw/0LP8LAjidAgAABAgQIECBAgACBuIDwI05cu4Dwo/b8dE+AAAECBAgQIECAAAECnr3YgREB4YcVIUCAAAECBAgQIECAAIHqAm5+VJ9guH/hRxjY8QQIECBAgAABAgQIECAQFxB+xIlrFxB+1J6f7gkQIECAAAECBAgQIEDAsxc7MCIg/LAiBAgQIECAAAECBAgQIFBdwM2P6hMM9y/8CAM7ngABAgQIECBAgAABAgTiAsKPOHHtAsKP2vPTPQECBAgQIECAAAECBAh49mIHRgSEH1aEAAECBAgQIECAAAECBKoLuPlRfYLh/oUfYWDHEyBAgAABAgQIECBAgEBcQPgRJ65dQPhRe366J0CAAAECBAgQIECAAAHPXuzAiIDww4oQIECAAAECBAgQIECAQHUBNz+qTzDcv/AjDOx4AgQIECBAgAABAgQIEIgLCD/ixLULCD9qz0/3BAgQIECAAAECBAgQIODZix0YERB+WBECBAgQIECAAAECBAgQqC7g5kf1CYb7F36EgR1PgAABAgQIECBAgAABAnEB4UecuHYB4Uft+emeAAECBAgQIECAAAECBDx7sQMjAsIPK0KAAAECBAgQIECAAAEC1QXc/Kg+wXD/wo8wsOMJECBAgAABAgQIECBAIC4g/IgT1y4g/Kg9P90TIECAAAECBAgQIECAgGcvdmBEQPhhRQgQIECAAAECBAgQIECguoCbH9UnGO5f+BEGdjwBAgQIECBAgAABAgQIxAWEH3Hi2gWEH7Xnp3sCBAgQIECAAAECBAgQ8OzFDowICD+sCAECBAgQIECAAAECBAhUF3Dzo/oEw/0LP8LAjidAgAABAgQIECBAgACBuIDwI05cu4Dwo/b8dE+AAAECBAgQIECAAAECnr3YgREB4YcVIUCAAAECBAgQIECAAIHqAm5+VJ9guH/hRxjY8QQIECBAgAABAgQIECAQFxB+xIlrFxB+1J6f7gkQIECAqWEv3AAABRJJREFUAAECBAgQIEDAsxc7MCIg/LAiBAgQIECAAAECBAgQIFBdwM2P6hMM9y/8CAM7ngABAgQIECBAgAABAgTiAsKPOHHtAsKP2vPTPQECBAgQIECAAAECBAh49mIHRgSEH1aEAAECBAgQIECAAAECBKoLuPlRfYLh/oUfYWDHEyBAgAABAgQIECBAgEBcQPgRJ65dQPhRe366J0CAAAECBAgQIECAAAHPXuzAiIDww4oQIECAAAECBAgQIECAQHUBNz+qTzDcv/AjDOx4AgQIECBAgAABAgQIEIgLCD/ixLULCD9qz0/3BAgQIECAAAECBAgQIODZix0YERB+WBECBAgQIECAAAECBAgQqC7g5kf1CYb7F36EgR1PgAABAgQIECBAgAABAnEB4UecuHYB4Uft+emeAAECBAgQIECAAAECBDx7sQMjAsIPK0KAAAECBAgQIECAAAEC1QXc/Kg+wXD/wo8wsOMJECBAgAABAgQIECBAIC4g/IgT1y4g/Kg9P90TIECAAAECBAgQIECAgGcvdmBEQPhhRQgQIECAAAECBAgQIECguoCbH9UnGO5f+BEGdjwBAgQIECBAgAABAgQIxAWEH3Hi2gWEH7Xnp3sCBAgQIECAAAECBAgQmOazl31r7dXd3V27uLgwo44C+/2+rdfrYwcPwzAYRsdZKE2AAAECBAgQIECAAAECjxeY4s2PH621Nzc3N+3y8vLxX+aXTxbYbDbt+vr6eM7PYRjePvlABxAgQIAAAQIECBAgQIAAgQ4Ckws/VqvVx8Ph8Hk+n7erq6u2WCzcAHnmxTje+Njtdu329rbd39+32Wz2abvdfnnmNpQjQIAAAQIECBAgQIAAAQInEZhc+HH8quVy+a219u4kX+iQpwp8H4bh/VMP8XsCBAgQIECAAAECBAgQINBLYJLhxxHj9w2QD62118e/AdIL6IXWfWit/ZrNZl/d+HihG+CzCRAgQIAAAQIECBAgcEYCkw0/zsjYpxAgQIAAAQIECBAgQIAAAQIdBYQfHfGVJkCAAAECBAgQIECAAAECBPICwo+8sQoECBAgQIAAAQIECBAgQIBARwHhR0d8pQkQIECAAAECBAgQIECAAIG8gPAjb6wCAQIECBAgQIAAAQIECBAg0FFA+NERX2kCBAgQIECAAAECBAgQIEAgLyD8yBurQIAAAQIECBAgQIAAAQIECHQUEH50xFeaAAECBAgQIECAAAECBAgQyAsIP/LGKhAgQIAAAQIECBAgQIAAAQIdBYQfHfGVJkCAAAECBAgQIECAAAECBPICwo+8sQoECBAgQIAAAQIECBAgQIBARwHhR0d8pQkQIECAAAECBAgQIECAAIG8gPAjb6wCAQIECBAgQIAAAQIECBAg0FFA+NERX2kCBAgQIECAAAECBAgQIEAgLyD8yBurQIAAAQIECBAgQIAAAQIECHQUEH50xFeaAAECBAgQIECAAAECBAgQyAsIP/LGKhAgQIAAAQIECBAgQIAAAQIdBYQfHfGVJkCAAAECBAgQIECAAAECBPICwo+8sQoECBAgQIAAAQIECBAgQIBARwHhR0d8pQkQIECAAAECBAgQIECAAIG8gPAjb6wCAQIECBAgQIAAAQIECBAg0FFA+NERX2kCBAgQIECAAAECBAgQIEAgLyD8yBurQIAAAQIECBAgQIAAAQIECHQUEH50xFeaAAECBAgQIECAAAECBAgQyAv8A8fZWag44+q8AAAAAElFTkSuQmCC;" vertex="1" parent="1">
          <mxGeometry x="-80" y="70" width="1087" height="1225" as="geometry" />
        </mxCell>
      </root>
    </mxGraphModel>
  </diagram>
</mxfile>
